<svg width="207" height="206" viewBox="0 0 207 206" fill="none" xmlns="http://www.w3.org/2000/svg">
<g clip-path="url(#clip0_8_1131)">
<g style="mix-blend-mode:multiply">
<path d="M172.537 184.062C176.106 178.576 178.44 172.38 179.378 165.903C180.316 159.426 179.836 152.822 177.97 146.549C175.559 138.655 170.939 131.326 170.351 123.086C169.17 106.606 184.057 93.3236 187.144 77.1183C188.501 69.9769 187.023 61.6985 181.2 57.3423C175.377 52.9861 167.253 53.9419 160.749 56.9358C154.244 59.9296 148.735 64.7198 142.489 68.2246C136.243 71.7293 128.53 73.9211 121.938 71.136C115.346 68.3509 111.501 61.1931 109.358 54.2605C107.216 47.3279 106.189 39.9339 102.569 33.6495C96.5974 23.2946 83.8638 17.6474 71.9982 19.1087C60.1326 20.5699 49.5305 28.5737 43.8449 39.0879C38.1593 49.6022 37.165 62.3247 39.9995 73.9431C41.4333 79.832 43.8009 85.4791 45.0919 91.4009C46.3828 97.3228 46.4982 103.81 43.6196 109.144C37.577 120.307 21.7122 121.861 13.4063 131.431C6.53964 139.33 6.3254 151.383 10.2257 161.095C14.1259 170.807 21.4431 178.674 28.7437 186.188C62.8024 187.331 97.4653 187.408 131.519 188.551C144.735 189.007 159.32 184.843 172.537 184.062Z" fill="#E0E8FF"/>
</g>
<g style="mix-blend-mode:multiply">
<g style="mix-blend-mode:multiply">
<path d="M170.829 186.26L170.093 185.59C172.109 183.392 175.328 178.338 174.24 169.263C173.751 165.22 172.554 161.232 171.389 157.37C170.873 155.645 170.334 153.866 169.867 152.091C164.898 132.934 167.026 112.626 175.861 94.9167C176.646 93.3676 177.509 91.8129 178.311 90.3133C180.739 85.8582 183.255 81.2548 184.326 76.2833C186.221 67.5544 182.48 61.0118 178.201 58.6222C174.097 56.337 168.313 56.6886 162.309 59.5835C160.111 60.6438 157.98 61.9402 155.92 63.1982C153.196 64.9574 150.331 66.4897 147.356 67.7796C135.452 72.5588 120.57 68.4992 112.748 58.3421C108.985 53.464 106.859 47.5641 104.804 41.8621C104.008 39.6647 103.184 37.3685 102.283 35.1822C99.4649 28.3814 94.3121 19.8448 85.748 17.8068C78.2276 16.0104 70.6084 19.9546 65.5435 23.5802C55.8478 30.5128 49.0196 39.9064 46.3169 50.0252C44.4821 56.8479 44.4107 64.2749 44.3393 71.4492C44.2349 82.1447 44.125 93.2083 38.0824 102.113C35.3357 106.167 31.5563 109.397 27.9032 112.55C24.4809 115.478 20.9377 118.511 18.3009 122.18C12.3241 130.492 10.8574 142.269 14.2798 154.481C17.356 165.468 23.6184 175.185 29.6941 184.601L28.8591 185.15C22.7505 175.647 16.4661 165.847 13.3184 154.728C9.81368 142.225 11.3353 130.145 17.4934 121.581C20.2016 117.818 23.7832 114.748 27.2495 111.781C30.8586 108.699 34.5831 105.508 37.2584 101.569C43.1308 92.9061 43.2351 82.4853 43.345 71.4546C43.4164 64.2089 43.4878 56.716 45.3501 49.7725C48.0967 39.434 55.0897 29.8481 64.9722 22.7782C70.2019 19.0373 78.0958 14.9667 85.9842 16.8454C94.9549 18.9878 100.3 27.7936 103.2 34.8086C104.118 37.006 104.942 39.3131 105.744 41.5325C107.771 47.1631 109.869 52.9861 113.539 57.7433C121.109 67.5599 135.512 71.4766 146.993 66.8677C149.919 65.5978 152.736 64.0894 155.414 62.3577C157.496 61.0887 159.65 59.7813 161.886 58.6991C168.175 55.6558 174.301 55.3152 178.695 57.7653C183.282 60.3197 187.309 67.2742 185.287 76.4975C184.189 81.6118 181.629 86.2812 179.168 90.7802C178.355 92.2799 177.52 93.8235 176.734 95.3561C168.013 112.856 165.916 132.919 170.829 151.844C171.296 153.602 171.829 155.376 172.345 157.09C173.52 160.99 174.735 165.023 175.229 169.176C176.366 178.619 172.966 183.936 170.829 186.26Z" fill="#E0E8FF"/>
</g>
</g>
<path d="M203.168 190.517H4.30951C3.82406 190.516 3.34353 190.42 2.89552 190.233C2.44751 190.046 2.04084 189.772 1.69885 189.428C1.35686 189.083 1.0863 188.675 0.902704 188.225C0.719104 187.776 0.626077 187.295 0.628972 186.809V186.809C0.628248 186.325 0.723097 185.845 0.908081 185.398C1.09306 184.95 1.36455 184.544 1.70697 184.201C2.0494 183.859 2.45603 183.587 2.90356 183.402C3.3511 183.217 3.83074 183.122 4.315 183.123H203.174C203.658 183.122 204.138 183.217 204.586 183.402C205.034 183.587 205.441 183.858 205.784 184.201C206.126 184.543 206.398 184.95 206.584 185.397C206.77 185.845 206.865 186.325 206.865 186.809V186.809C206.867 187.296 206.773 187.778 206.588 188.228C206.403 188.678 206.131 189.087 205.788 189.432C205.444 189.777 205.036 190.05 204.586 190.236C204.137 190.422 203.655 190.518 203.168 190.517V190.517Z" fill="#758AFF"/>
<path d="M63.6486 133.117C61.6077 131.918 59.8416 130.303 58.4646 128.377C57.0875 126.452 56.1303 124.259 55.6549 121.94C55.1795 119.62 55.1965 117.227 55.7048 114.915C56.2131 112.603 57.2014 110.424 58.6057 108.518C60.803 105.568 64.0441 103.025 64.4506 99.3992C64.8791 95.6253 62.05 92.3513 60.7481 88.7861C59.9742 86.5959 59.7604 84.2469 60.1259 81.9529C60.4914 79.6589 61.4248 77.4928 62.841 75.6515C64.9065 73.0147 67.9608 71.1085 69.3397 68.0597C70.2076 66.1371 70.312 63.9782 70.5537 61.8852C70.7954 59.7923 71.2349 57.6114 72.6137 56.0184C73.9925 54.4253 76.5744 53.7057 78.2498 54.9746C81.4305 51.6786 85.1714 47.7125 89.3848 45.9436C93.5982 44.1747 98.6631 43.9275 102.602 46.2347C105.722 48.064 107.798 51.2227 110.54 53.5848C112.891 55.6119 115.703 57.0182 118.23 58.809C120.757 60.5998 123.136 62.9345 123.916 65.9503C125.196 70.8943 121.889 75.8383 121.719 80.9526C121.565 85.8966 124.388 90.4835 125.015 95.4001C125.641 100.317 123.965 105.458 121.307 109.727C118.648 113.995 115.088 117.593 111.534 121.158C110.095 127.585 105.354 132.145 99.3113 134.76C93.2686 137.375 86.4953 137.831 79.9088 137.594C74.5473 137.397 68.274 135.836 63.6486 133.117Z" fill="#6B3C00"/>
<path d="M70.9988 120.115C69.6254 118.302 69.6639 115.775 70.2407 113.572C70.8175 111.369 71.8447 109.304 72.2952 107.079C72.9104 104.069 72.4215 100.954 71.7953 97.9435C71.1691 94.9331 70.4055 91.9008 70.4659 88.852C70.5263 85.8032 71.5261 82.5731 73.8773 80.612C82.1173 73.6739 95.4441 76.0855 106.156 77.2171C111.567 77.7665 115.264 83.0071 116.983 88.1708C118.703 93.3346 118.115 99.0861 116.072 104.101C114.028 109.117 110.606 113.534 106.733 117.34C104.415 119.609 100.306 117.785 97.1196 118.412C93.9334 119.038 91.3076 120.933 88.3742 122.158C83.6317 124.134 78.3348 124.329 73.4598 122.707C72.0315 122.229 70.8504 121.598 70.9988 120.115Z" fill="#593200"/>
<path d="M130.118 125.465C126.202 120.423 120.712 116.834 114.522 115.269C111.699 114.561 108.754 114.297 106.008 113.418C105.216 113.168 104.445 112.858 103.7 112.49C102.605 108.236 102.068 103.858 102.102 99.4652H85.8361C85.868 103.852 85.3325 108.224 84.2431 112.473C83.4987 112.841 82.7274 113.151 81.9359 113.402C79.1617 114.275 76.2338 114.544 73.4157 115.253C67.2164 116.801 61.7197 120.393 57.8134 125.449C53.9072 130.506 51.8194 136.731 51.8873 143.121V183.315L124.443 182.25C127.537 182.206 130.489 180.947 132.661 178.744C134.833 176.541 136.051 173.571 136.051 170.478V143.137C136.097 136.75 134.009 130.53 130.118 125.465V125.465Z" fill="#FFC582"/>
<path d="M101.909 180.734C103.294 177.102 103.409 173.136 103.914 169.285C104.876 161.891 107.287 154.772 108.996 147.515C110.704 140.259 112.226 132.354 110.353 125.135C99.7602 126.41 89.0522 126.393 78.4638 125.086C74.4591 126.767 72.3827 131.815 71.6411 136.073C70.8995 140.33 71.4378 144.725 71.5202 149.064C71.6136 153.811 71.1467 158.562 71.3719 163.303C71.5971 168.044 72.5749 172.9 75.2557 176.817C76.9757 179.193 79.1102 181.24 81.5565 182.859L101.025 182.574C101.362 181.982 101.658 181.367 101.909 180.734V180.734Z" fill="white"/>
<path d="M71.6413 139.88C72.3829 135.6 74.4594 130.541 78.464 128.893C89.0526 130.198 99.7602 130.214 110.353 128.942C110.801 130.7 111.071 132.498 111.16 134.309C111.357 131.235 111.084 128.15 110.353 125.157C99.7604 126.432 89.0524 126.415 78.464 125.108C74.4594 126.789 72.3829 131.837 71.6413 136.095C71.2787 138.446 71.1627 140.828 71.2952 143.203C71.339 142.089 71.4546 140.979 71.6413 139.88V139.88Z" fill="#EDEDED"/>
<path d="M71.5205 152.871C71.5205 152.723 71.5205 152.575 71.5205 152.426C71.4491 155.684 71.2623 158.941 71.3502 162.193C71.3996 159.084 71.5809 155.981 71.5205 152.871Z" fill="#EDEDED"/>
<path d="M85.4077 106.398C91.2869 106.335 97.0531 104.775 102.162 101.866C102.129 101.075 102.107 100.278 102.118 99.4816H85.8362C85.8529 101.794 85.7097 104.105 85.4077 106.398V106.398Z" fill="#94724C"/>
<path d="M78.6015 78.4696C77.9423 77.2501 77.1458 76.0306 75.9482 75.3384C74.7507 74.6463 73.0478 74.6518 72.1029 75.6845C71.3558 76.525 71.3009 77.7665 71.3723 78.8871C71.5096 81.1559 72.0095 83.4905 73.3774 85.3088C74.7452 87.1271 77.1403 88.3027 79.3431 87.7204C79.6782 84.6331 80.0737 81.2053 78.6015 78.4696Z" fill="#FFC582"/>
<path d="M78.4473 80.8812L78.6835 80.9197C78.4035 80.1569 78.0541 79.4214 77.6398 78.7223C77.2214 78.0315 76.6283 77.4631 75.9204 77.0743C75.5654 76.8864 75.174 76.7774 74.773 76.7546C74.3719 76.7318 73.9707 76.7959 73.5967 76.9425C73.2228 77.1009 72.9056 77.3689 72.6869 77.7111C72.4683 78.0533 72.3584 78.4538 72.3717 78.8597C72.6123 78.6125 72.9128 78.4319 73.2441 78.3356C73.5753 78.2394 73.9258 78.2306 74.2614 78.3103C74.5926 78.3815 74.8991 78.5388 75.1499 78.7665C75.4007 78.9941 75.5869 79.284 75.6897 79.6068C75.4073 79.6783 75.1523 79.8317 74.9568 80.0477C74.7613 80.2637 74.6341 80.5327 74.591 80.8208C74.5058 81.3997 74.5958 81.9908 74.8492 82.5182C74.9765 82.836 75.1629 83.1268 75.3985 83.3752C75.6339 83.6228 75.9579 83.767 76.2994 83.7762C76.1442 83.9873 75.9459 84.1631 75.7177 84.2919C75.4895 84.4207 75.2365 84.4996 74.9755 84.5233C75.5302 84.7888 76.1437 84.9075 76.7573 84.8681C77.371 84.8287 77.9642 84.6324 78.4803 84.2981C78.5933 83.1613 78.5823 82.0156 78.4473 80.8812V80.8812Z" fill="#D6A56D"/>
<path d="M108.326 79.6562C108.985 78.4367 109.776 77.2172 110.979 76.525C112.182 75.8328 113.88 75.8383 114.825 76.8711C115.572 77.7116 115.621 78.9531 115.555 80.0737C115.418 82.3424 114.918 84.6771 113.545 86.4954C112.171 88.3137 109.782 89.4893 107.584 88.907C107.249 85.8142 106.854 82.3919 108.326 79.6562Z" fill="#FFC582"/>
<path d="M108.474 82.0678L108.238 82.1062C108.522 81.3443 108.873 80.609 109.287 79.9089C109.704 79.2169 110.297 78.6482 111.006 78.2609C111.364 78.0679 111.758 77.9552 112.163 77.9305C112.569 77.9059 112.974 77.9699 113.352 78.1181C113.726 78.2761 114.043 78.5442 114.261 78.8866C114.478 79.2291 114.587 79.6297 114.572 80.0353C114.332 79.7881 114.033 79.6075 113.702 79.5111C113.372 79.4148 113.022 79.4061 112.687 79.4859C112.356 79.556 112.049 79.713 111.798 79.9408C111.547 80.1686 111.361 80.459 111.259 80.7823C111.542 80.8532 111.797 81.0064 111.993 81.2225C112.188 81.4387 112.315 81.708 112.358 81.9964C112.449 82.5753 112.358 83.1681 112.1 83.6938C111.973 84.0117 111.786 84.3026 111.55 84.5508C111.314 84.7974 110.991 84.9414 110.649 84.9518C110.805 85.1629 111.003 85.3387 111.231 85.4675C111.459 85.5963 111.712 85.6751 111.973 85.6989C111.418 85.9644 110.803 86.0831 110.189 86.0436C109.574 86.0042 108.98 85.808 108.463 85.4736C108.343 84.3413 108.347 83.1993 108.474 82.0678V82.0678Z" fill="#D6A56D"/>
<path d="M77.0465 85.4791C79.6314 85.4791 81.7269 83.3837 81.7269 80.7988C81.7269 78.2139 79.6314 76.1185 77.0465 76.1185C74.4617 76.1185 72.3662 78.2139 72.3662 80.7988C72.3662 83.3837 74.4617 85.4791 77.0465 85.4791Z" fill="#0094C6"/>
<path d="M110.188 85.4791C112.773 85.4791 114.868 83.3837 114.868 80.7988C114.868 78.2139 112.773 76.1185 110.188 76.1185C107.603 76.1185 105.508 78.2139 105.508 80.7988C105.508 83.3837 107.603 85.4791 110.188 85.4791Z" fill="#0094C6"/>
<path d="M93.5871 104.129C102.752 104.129 110.182 94.1362 110.182 81.8096C110.182 69.4829 102.752 59.4902 93.5871 59.4902C84.4217 59.4902 76.9917 69.4829 76.9917 81.8096C76.9917 94.1362 84.4217 104.129 93.5871 104.129Z" fill="#FFC582"/>
<path d="M77.9914 73.4267C77.475 73.185 78.3704 72.2896 79.7218 71.9216C83.2979 70.9602 87.2531 70.5482 90.225 72.7566C90.3459 73.3718 89.5549 74.1079 88.9341 74.1848C88.3046 74.1932 87.6813 74.0599 87.1103 73.7948C84.1693 72.798 81.0032 72.6702 77.9914 73.4267V73.4267Z" fill="#6B3C00"/>
<path d="M109.045 73.4267C109.595 73.185 108.672 72.2896 107.32 71.9216C103.744 70.9602 99.7836 70.5483 96.8117 72.7565C96.6963 73.3718 97.4819 74.1079 98.1081 74.1848C98.7359 74.1937 99.3575 74.0604 99.9264 73.7948C102.867 72.798 106.034 72.6702 109.045 73.4267V73.4267Z" fill="#6B3C00"/>
<path d="M88.9125 87.226C88.9125 87.8687 86.858 88.3906 84.3311 88.3906C81.8041 88.3906 79.7441 87.8413 79.7441 87.226C79.7441 86.6108 81.7986 86.0559 84.3311 86.0559C86.8635 86.0559 88.9125 86.5778 88.9125 87.226Z" fill="#FFA866"/>
<path d="M107.178 87.226C107.178 87.8687 105.129 88.3906 102.596 88.3906C100.064 88.3906 98.0146 87.8413 98.0146 87.226C98.0146 86.6108 100.064 86.0559 102.596 86.0559C105.129 86.0559 107.178 86.5778 107.178 87.226Z" fill="#FFA866"/>
<g style="mix-blend-mode:multiply">
<path d="M93.1534 76.9865C93.5842 80.0445 92.8488 83.1526 91.0934 85.6934C90.658 86.1711 90.3866 86.7755 90.3188 87.4183C90.3624 87.7808 90.5157 88.1214 90.7582 88.3943C91.0007 88.6673 91.3208 88.8596 91.6757 88.9454C92.3891 89.1029 93.1301 89.084 93.8346 88.8905" stroke="#D9D9D9" stroke-width="2" stroke-linecap="round" stroke-linejoin="round"/>
</g>
<path d="M84.4409 85.3033C82.9785 85.3033 81.5489 84.8697 80.333 84.0572C79.1171 83.2447 78.1693 82.0899 77.6097 80.7389C77.0501 79.3878 76.9037 77.9011 77.189 76.4668C77.4743 75.0325 78.1785 73.715 79.2125 72.6809C80.2466 71.6468 81.5641 70.9426 82.9984 70.6573C84.4327 70.372 85.9194 70.5185 87.2705 71.0781C88.6216 71.6377 89.7763 72.5855 90.5888 73.8014C91.4013 75.0173 91.8349 76.4469 91.8349 77.9093C91.832 79.8694 91.0521 81.7484 89.6661 83.1345C88.28 84.5205 86.401 85.3004 84.4409 85.3033V85.3033ZM84.4409 71.7183C83.2162 71.7172 82.0187 72.0794 80.9999 72.759C79.9811 73.4386 79.1867 74.4051 78.7173 75.5363C78.2478 76.6675 78.1245 77.9124 78.3627 79.1137C78.601 80.315 79.1902 81.4187 80.0558 82.285C80.9214 83.1514 82.0245 83.7416 83.2256 83.9809C84.4267 84.2202 85.6718 84.098 86.8033 83.6295C87.9349 83.1611 88.9021 82.3676 89.5826 81.3494C90.2632 80.3312 90.6264 79.134 90.6264 77.9093C90.6235 76.2692 89.9711 74.697 88.8118 73.5367C87.6526 72.3765 86.081 71.7227 84.4409 71.7183V71.7183Z" fill="white"/>
<path d="M102.997 85.3033C101.535 85.3012 100.107 84.8657 98.8924 84.0519C97.6779 83.2381 96.7319 82.0825 96.1739 80.7313C95.616 79.38 95.4711 77.8937 95.7577 76.4601C96.0442 75.0265 96.7493 73.71 97.7838 72.6771C98.8183 71.6441 100.136 70.941 101.57 70.6566C103.004 70.3722 104.49 70.5192 105.84 71.0792C107.191 71.6391 108.345 72.5868 109.157 73.8025C109.969 75.0183 110.402 76.4474 110.402 77.9093C110.399 79.8713 109.618 81.752 108.23 83.1383C106.841 84.5247 104.959 85.3033 102.997 85.3033V85.3033ZM102.997 71.7183C101.773 71.7183 100.576 72.0814 99.5578 72.7617C98.5397 73.442 97.7462 74.4089 97.2776 75.5401C96.809 76.6714 96.6864 77.9162 96.9253 79.1171C97.1642 80.318 97.7538 81.4212 98.6196 82.287C99.4854 83.1528 100.589 83.7424 101.789 83.9813C102.99 84.2202 104.235 84.0976 105.366 83.629C106.498 83.1604 107.465 82.3669 108.145 81.3488C108.825 80.3307 109.188 79.1338 109.188 77.9093C109.185 76.2682 108.532 74.6952 107.372 73.5348C106.211 72.3744 104.638 71.7212 102.997 71.7183V71.7183Z" fill="white"/>
<path d="M91.5819 78.4037L90.8843 77.4204C91.7181 76.8464 92.7065 76.5391 93.7188 76.5391C94.7311 76.5391 95.7196 76.8464 96.5534 77.4204L95.8557 78.3982C93.7518 76.8985 91.6039 78.3872 91.5819 78.4037Z" fill="white"/>
<g style="mix-blend-mode:multiply">
<path d="M88.8242 92.0437C90.407 92.9345 92.2053 93.37 94.0202 93.3021C95.8352 93.2343 97.5959 92.6656 99.1077 91.6591" stroke="#D9D9D9" stroke-width="2" stroke-linecap="round" stroke-linejoin="round"/>
</g>
<g style="mix-blend-mode:multiply">
<path d="M92.082 95.6802C93.079 96.015 94.1434 96.0981 95.1803 95.922" stroke="#D9D9D9" stroke-width="2" stroke-linecap="round" stroke-linejoin="round"/>
</g>
<path d="M70.8777 82.9851C76.511 78.8655 80.783 73.1548 83.1444 66.5875C87.2158 70.274 92.5707 72.2167 98.0588 71.9985C97.0244 71.4467 96.1645 70.6172 95.5758 69.6034C100.761 70.8284 105.222 73.9981 108.639 78.0686C110.029 79.7166 111.204 81.5788 112.77 83.0675C114.336 84.5562 116.439 85.6879 118.587 85.4571C117.247 79.7496 115.94 73.8497 113.792 68.3894C112.473 65.0439 110.913 61.6271 108.156 59.3144C104.728 56.4304 99.9155 55.6998 95.4714 56.0184C90.6832 56.3569 86.0422 57.8192 81.9248 60.2867C76.3325 63.7007 72.0552 68.9012 69.7846 75.0473C69.2359 76.3803 68.954 77.8081 68.9551 79.2497C68.986 79.9744 69.174 80.6837 69.5059 81.3287C69.8379 81.9736 70.306 82.5388 70.8777 82.9851V82.9851Z" fill="#6B3C00"/>
<path d="M77.0247 86.6382C77.0247 86.937 76.9361 87.2291 76.7701 87.4775C76.6041 87.7259 76.3682 87.9196 76.0922 88.0339C75.8161 88.1482 75.5124 88.1781 75.2194 88.1199C74.9263 88.0616 74.6571 87.9177 74.4459 87.7064C74.2346 87.4952 74.0907 87.226 74.0324 86.9329C73.9742 86.6399 74.0041 86.3362 74.1184 86.0601C74.2327 85.7841 74.4264 85.5482 74.6748 85.3822C74.9232 85.2162 75.2153 85.1276 75.5141 85.1276C75.9147 85.1276 76.299 85.2867 76.5823 85.57C76.8656 85.8533 77.0247 86.2376 77.0247 86.6382V86.6382Z" fill="#FFEE3D"/>
<path d="M113.209 86.6382C113.209 86.937 113.121 87.2291 112.955 87.4775C112.789 87.7259 112.553 87.9196 112.277 88.0339C112.001 88.1482 111.697 88.1781 111.404 88.1199C111.111 88.0616 110.842 87.9177 110.63 87.7064C110.419 87.4952 110.275 87.226 110.217 86.9329C110.159 86.6399 110.189 86.3362 110.303 86.0601C110.417 85.7841 110.611 85.5482 110.859 85.3822C111.108 85.2162 111.4 85.1276 111.699 85.1276C112.099 85.1276 112.484 85.2867 112.767 85.57C113.05 85.8533 113.209 86.2376 113.209 86.6382V86.6382Z" fill="#FFEE3D"/>
<path d="M84.7924 75.701C84.4957 75.7374 84.2165 75.8613 83.9906 76.057C83.7646 76.2527 83.6019 76.5112 83.5234 76.7997L84.7924 78.0686L83.5234 79.3431C83.6019 79.6315 83.7646 79.89 83.9906 80.0857C84.2165 80.2814 84.4957 80.4053 84.7924 80.4417C85.6274 80.4417 86.3031 79.3815 86.3031 78.0686C86.3031 76.7557 85.6274 75.701 84.7924 75.701Z" fill="#453E18"/>
<path d="M102.448 75.701C102.151 75.7381 101.872 75.8623 101.647 76.0579C101.421 76.2534 101.258 76.5116 101.179 76.7997L102.448 78.0686L101.179 79.3431C101.258 79.6312 101.421 79.8893 101.647 80.0849C101.872 80.2804 102.151 80.4046 102.448 80.4417C103.283 80.4417 103.958 79.3815 103.958 78.0686C103.958 76.7557 103.261 75.701 102.448 75.701Z" fill="#453E18"/>
<path d="M74.1463 72.6687C73.8387 70.1948 74.0883 67.6835 74.8769 65.3186C75.6848 62.8918 76.9951 60.6625 78.7222 58.776C80.4751 56.8524 82.6148 55.3211 85.0011 54.2825C87.4024 53.23 89.9958 52.6867 92.6176 52.6867C95.2394 52.6867 97.8328 53.23 100.234 54.2825C102.634 55.3176 104.788 56.8468 106.557 58.7705C108.285 60.6565 109.595 62.8859 110.402 65.3131C111.191 67.6799 111.44 70.193 111.133 72.6687C110.557 67.9879 108.34 63.663 104.876 60.4625C101.529 57.4141 97.1642 55.7246 92.6368 55.7246C88.1095 55.7246 83.745 57.4141 80.3977 60.4625C76.9325 63.6612 74.7168 67.9874 74.1463 72.6687V72.6687Z" fill="white"/>
<path d="M114.522 115.269C112.182 114.682 109.776 114.391 107.436 113.814C102.517 136.524 99.0442 159.523 97.0371 182.673L124.443 182.266C127.537 182.223 130.489 180.963 132.661 178.76C134.833 176.557 136.051 173.588 136.051 170.494V143.137C136.116 136.749 134.027 130.524 130.121 125.468C126.215 120.413 120.72 116.82 114.522 115.269Z" fill="#009FCF"/>
<path d="M81.0185 113.682C78.519 114.352 75.9262 114.638 73.4157 115.269C67.2164 116.817 61.7197 120.409 57.8134 125.466C53.9072 130.522 51.8194 136.748 51.8873 143.137V183.332L91.4394 182.75C89.433 159.529 85.9523 136.46 81.0185 113.682V113.682Z" fill="#009FCF"/>
<g style="mix-blend-mode:multiply" opacity="0.18">
<path d="M73.4156 115.269C72.5622 115.479 71.7205 115.734 70.8942 116.033C68.9825 121.468 67.2393 126.932 65.6646 132.425C68.6584 134.15 71.5479 136.298 74.8 137.66C73.6244 140.528 72.3719 143.703 71.1963 146.56C77.1824 158.256 82.3066 170.373 86.5282 182.815L91.4722 182.755C89.0282 159.611 84.832 136.686 78.92 114.176C77.0742 114.539 75.2449 114.814 73.4156 115.269Z" fill="#009FCF"/>
</g>
<g style="mix-blend-mode:multiply" opacity="0.18">
<path d="M117.318 146.565C116.17 143.703 114.94 140.522 113.792 137.666C116.972 136.303 119.801 134.156 122.724 132.431C121.215 127.007 119.54 121.62 117.698 116.269C116.66 115.873 115.6 115.54 114.522 115.269C112.797 114.836 111.034 114.561 109.287 114.22C103.516 136.703 99.4214 159.584 97.0371 182.673L102.399 182.59C106.505 170.241 111.491 158.202 117.318 146.565V146.565Z" fill="#009FCF"/>
</g>
<path d="M81.0186 113.682C78.9861 114.231 76.8931 114.522 74.8331 114.945C73.1375 120.739 71.5994 126.566 70.2188 132.425C72.6798 134.15 75.0639 136.298 77.7391 137.66C76.7778 140.528 75.7395 143.703 74.7727 146.559C79.7453 158.366 83.9653 170.476 87.4074 182.815L91.4669 182.755C89.4517 159.532 85.9619 136.462 81.0186 113.682V113.682Z" fill="#00ACE0"/>
<path d="M114.121 115.176C111.924 114.627 109.644 114.358 107.436 113.814C102.517 136.524 99.0442 159.523 97.0371 182.673L101.547 182.601C104.975 170.337 109.173 158.301 114.116 146.565C113.149 143.703 112.111 140.522 111.144 137.666C113.825 136.303 116.203 134.156 118.67 132.431C117.311 126.641 115.795 120.889 114.121 115.176Z" fill="#00ACE0"/>
<path d="M82.4359 113.967C82.3175 113.968 82.2002 113.945 82.0909 113.899C81.9815 113.854 81.8822 113.788 81.7987 113.704C81.757 113.661 81.7185 113.615 81.6833 113.566C81.6504 113.516 81.6228 113.463 81.6009 113.407C81.5802 113.354 81.5636 113.299 81.5515 113.242C81.5437 113.184 81.5437 113.125 81.5515 113.067C81.5434 113.006 81.5434 112.945 81.5515 112.885C81.5628 112.827 81.5794 112.77 81.6009 112.715C81.6229 112.661 81.6505 112.609 81.6833 112.561C81.7157 112.511 81.7545 112.465 81.7987 112.424C81.9036 112.321 82.0318 112.245 82.1723 112.202C82.3128 112.159 82.4616 112.15 82.6062 112.177C82.6653 112.187 82.7227 112.205 82.7765 112.232C82.8337 112.25 82.8875 112.278 82.9358 112.314C82.9852 112.346 83.0312 112.383 83.0731 112.424C83.1142 112.467 83.1528 112.513 83.1885 112.561C83.2192 112.611 83.2467 112.662 83.2709 112.715L83.3203 112.885C83.3257 112.946 83.3257 113.006 83.3203 113.067C83.3255 113.125 83.3255 113.184 83.3203 113.242L83.2709 113.407C83.2467 113.462 83.2192 113.515 83.1885 113.566L83.0731 113.704C83.0312 113.745 82.9852 113.782 82.9358 113.814C82.8863 113.848 82.8328 113.875 82.7765 113.896C82.7217 113.92 82.6647 113.939 82.6062 113.951C82.5501 113.962 82.4931 113.968 82.4359 113.967V113.967Z" fill="#FFEE3D"/>
<path d="M92.917 119.153C92.7001 119.145 92.4934 119.059 92.3349 118.911C92.1765 118.762 92.0769 118.562 92.0546 118.346V118.346C91.9982 118.554 91.8693 118.736 91.6911 118.857C91.5128 118.979 91.2969 119.034 91.0822 119.01V119.01C90.8674 118.985 90.6687 118.884 90.5225 118.725C90.3762 118.565 90.2922 118.359 90.2857 118.142V118.142C90.2145 118.347 90.0722 118.52 89.8848 118.628C89.6973 118.737 89.4771 118.775 89.264 118.736C89.0503 118.693 88.859 118.575 88.7241 118.404C88.5892 118.233 88.5197 118.02 88.5278 117.802C88.438 118.005 88.2761 118.168 88.0733 118.26C87.8705 118.351 87.641 118.364 87.4292 118.296V118.296C87.2172 118.231 87.0365 118.091 86.9211 117.902C86.8057 117.712 86.7636 117.487 86.8029 117.269V117.269C86.6849 117.447 86.5074 117.578 86.3022 117.637C86.0969 117.696 85.8772 117.681 85.6823 117.593V117.593C85.4799 117.494 85.3214 117.324 85.2372 117.115C85.153 116.906 85.1491 116.673 85.2263 116.462V116.462C85.0722 116.627 84.8615 116.729 84.6358 116.748C84.4101 116.766 84.1857 116.699 84.0068 116.56V116.56C83.827 116.42 83.7072 116.217 83.6715 115.991C83.6358 115.766 83.6869 115.535 83.8146 115.346V115.346C83.6244 115.475 83.3922 115.526 83.1656 115.489C82.9389 115.453 82.7348 115.331 82.595 115.149V115.149C82.449 114.958 82.3844 114.718 82.4153 114.48C82.4462 114.242 82.5701 114.026 82.7598 113.88V113.88C82.8539 113.808 82.9613 113.755 83.0758 113.725C83.1902 113.695 83.3095 113.687 83.4269 113.703C83.5442 113.719 83.6573 113.757 83.7596 113.817C83.862 113.877 83.9516 113.956 84.0233 114.05V114.05C84.1347 114.201 84.197 114.383 84.2019 114.57C84.2068 114.758 84.1541 114.942 84.0508 115.099V115.099C84.2097 114.995 84.3971 114.943 84.587 114.95C84.7769 114.956 84.96 115.022 85.111 115.138V115.138C85.2617 115.256 85.3707 115.42 85.4221 115.604C85.4735 115.789 85.4646 115.986 85.3966 116.165V116.165C85.528 116.023 85.7014 115.927 85.8913 115.892C86.0813 115.856 86.2776 115.883 86.4514 115.967V115.967C86.6304 116.051 86.7765 116.192 86.8669 116.368C86.9574 116.544 86.987 116.745 86.9513 116.939C87.0555 116.77 87.2127 116.64 87.3985 116.57C87.5843 116.499 87.7882 116.492 87.9785 116.549V116.549C88.1725 116.606 88.3413 116.728 88.4572 116.894C88.573 117.059 88.6289 117.26 88.6157 117.461V117.461C88.6957 117.271 88.8373 117.114 89.0176 117.014C89.198 116.915 89.4067 116.879 89.61 116.912V116.912C89.8121 116.952 89.9948 117.058 90.1284 117.215C90.2621 117.371 90.3388 117.569 90.3461 117.774V117.774C90.4135 117.581 90.545 117.416 90.7188 117.307C90.8926 117.198 91.0983 117.152 91.302 117.176V117.176C91.5053 117.197 91.6949 117.288 91.8389 117.433C91.983 117.578 92.0727 117.769 92.093 117.972V117.972C92.1466 117.774 92.2662 117.6 92.432 117.479C92.5978 117.358 92.7999 117.298 93.0049 117.307V117.307C93.2082 117.314 93.403 117.39 93.5569 117.523C93.7108 117.656 93.8146 117.838 93.8509 118.038V118.038C93.8891 117.837 93.994 117.655 94.1485 117.522C94.3031 117.388 94.4982 117.311 94.7024 117.302V117.302C94.9048 117.294 95.104 117.354 95.2683 117.473C95.4326 117.591 95.5524 117.761 95.6088 117.956C95.6275 117.754 95.7134 117.564 95.8528 117.416C95.9923 117.269 96.1771 117.173 96.3778 117.143V117.143C96.5779 117.114 96.7819 117.152 96.9579 117.251C97.1339 117.351 97.2719 117.506 97.3501 117.692V117.692C97.3465 117.49 97.4112 117.293 97.5339 117.132C97.6565 116.971 97.8299 116.857 98.0258 116.808V116.808C98.2212 116.757 98.4279 116.774 98.6123 116.856C98.7968 116.938 98.9482 117.079 99.0421 117.258V117.258C99.0191 117.058 99.0633 116.856 99.1677 116.684C99.2721 116.512 99.4309 116.38 99.6189 116.308V116.308C99.8059 116.235 100.012 116.227 100.204 116.285C100.396 116.343 100.563 116.463 100.679 116.626V116.626C100.632 116.431 100.652 116.226 100.734 116.043C100.817 115.86 100.958 115.71 101.135 115.616V115.616C101.313 115.518 101.518 115.483 101.718 115.518C101.918 115.553 102.1 115.655 102.234 115.808V115.808C102.161 115.621 102.153 115.415 102.211 115.223C102.269 115.031 102.389 114.864 102.552 114.748V114.748C102.714 114.631 102.91 114.572 103.109 114.58C103.308 114.588 103.499 114.662 103.651 114.792V114.792C103.552 114.616 103.516 114.412 103.546 114.213C103.577 114.014 103.674 113.831 103.821 113.693V113.693C103.906 113.61 104.007 113.545 104.117 113.502C104.228 113.459 104.346 113.438 104.464 113.44C104.583 113.443 104.7 113.469 104.808 113.517C104.917 113.565 105.014 113.634 105.096 113.72V113.72C105.178 113.805 105.243 113.906 105.287 114.016C105.33 114.127 105.351 114.245 105.348 114.363C105.346 114.482 105.32 114.599 105.272 114.707C105.224 114.816 105.154 114.913 105.068 114.995V114.995C104.909 115.148 104.699 115.237 104.478 115.245C104.257 115.253 104.041 115.18 103.871 115.039C103.975 115.234 104.004 115.46 103.953 115.675C103.903 115.891 103.776 116.08 103.596 116.209C103.417 116.336 103.197 116.394 102.979 116.37C102.76 116.347 102.558 116.245 102.41 116.082V116.082C102.483 116.285 102.481 116.508 102.405 116.709C102.328 116.911 102.182 117.078 101.992 117.181V117.181C101.799 117.287 101.574 117.317 101.36 117.266C101.146 117.216 100.958 117.087 100.833 116.906V116.906C100.884 117.12 100.857 117.344 100.756 117.539C100.655 117.734 100.487 117.886 100.284 117.967V117.967C100.081 118.038 99.8591 118.035 99.658 117.959C99.457 117.882 99.2894 117.737 99.1849 117.549V117.549C99.2104 117.767 99.1559 117.987 99.0317 118.168C98.9074 118.348 98.7218 118.478 98.5092 118.532V118.532C98.2967 118.586 98.0719 118.559 97.8775 118.458C97.6831 118.357 97.5326 118.188 97.4545 117.983V117.983C97.4542 118.202 97.3752 118.413 97.232 118.579C97.0888 118.744 96.8909 118.852 96.6745 118.884V118.884C96.458 118.917 96.2369 118.87 96.0535 118.75C95.87 118.63 95.7371 118.447 95.6802 118.236V118.236C95.6606 118.453 95.5631 118.657 95.4056 118.808C95.2482 118.959 95.0414 119.049 94.8232 119.06V119.06C94.6055 119.068 94.392 118.998 94.2209 118.864C94.0498 118.729 93.9322 118.537 93.8893 118.324V118.324C93.8531 118.532 93.7444 118.72 93.5826 118.856C93.4207 118.992 93.2161 119.066 93.0049 119.065H92.972L92.917 119.153Z" fill="#FFEE3D"/>
<path d="M105.612 113.984C105.373 113.983 105.144 113.887 104.975 113.719C104.805 113.55 104.708 113.322 104.706 113.083C104.708 112.843 104.804 112.614 104.975 112.446C105.148 112.284 105.375 112.195 105.612 112.195C105.849 112.195 106.076 112.284 106.249 112.446C106.333 112.53 106.399 112.629 106.445 112.738C106.49 112.848 106.513 112.965 106.513 113.083C106.513 113.201 106.49 113.319 106.445 113.428C106.399 113.537 106.333 113.637 106.249 113.72C106.079 113.888 105.851 113.983 105.612 113.984V113.984Z" fill="#FFEE3D"/>
<path d="M88.1654 96.9437H88.1379C86.3898 96.8911 84.6494 96.689 82.9358 96.3395C81.1611 95.9763 79.5097 95.1629 78.1401 93.9773C76.2449 92.2469 75.4428 89.8463 75.1023 88.1379C74.758 86.0029 74.6365 83.8379 74.7397 81.6777C74.7453 81.547 74.8009 81.4235 74.8949 81.3325C74.9889 81.2416 75.1143 81.1901 75.2451 81.1888C75.3102 81.1888 75.3747 81.2018 75.4347 81.2271C75.4948 81.2523 75.5492 81.2893 75.5947 81.3359C75.6403 81.3825 75.6761 81.4377 75.7 81.4983C75.7239 81.5589 75.7354 81.6236 75.734 81.6887C75.6301 83.7805 75.7442 85.8775 76.0746 87.9457C76.4161 89.9555 77.3763 91.8086 78.8212 93.2467C80.0647 94.3175 81.5631 95.0497 83.172 95.3726C84.8297 95.7092 86.5131 95.904 88.2039 95.9549C88.335 95.9549 88.4607 96.007 88.5535 96.0997C88.6462 96.1925 88.6983 96.3182 88.6983 96.4493C88.6983 96.5805 88.6462 96.7062 88.5535 96.7989C88.4607 96.8916 88.335 96.9437 88.2039 96.9437H88.1654Z" fill="#006385"/>
<path d="M89.6153 96.4109C89.6153 97.1525 88.7804 97.7567 87.7476 97.7567C86.7149 97.7567 85.8799 97.1525 85.8799 96.4109C85.8799 95.6693 86.7204 95.0705 87.7476 95.0705C88.7749 95.0705 89.6153 95.6693 89.6153 96.4109Z" fill="#006385"/>
<path d="M59.1329 124.855C53.5132 130.623 49.6514 137.913 46.9486 145.494C44.2459 153.075 42.6474 161.001 41.0543 168.895C40.5984 171.164 40.1424 173.526 40.7137 175.773C41.8893 180.371 46.9706 182.887 51.7004 183.436C56.4301 183.986 61.2423 183.195 65.9061 184.068C69.3614 164.457 67.9167 142.731 59.1329 124.855Z" fill="#009FCF"/>
<path d="M75.1513 173.625C78.6176 172.614 82.1004 171.598 85.693 171.23C89.2856 170.862 93.0211 171.186 96.2732 172.752C99.5252 174.317 102.228 177.245 102.97 180.777C103.2 181.876 101.036 182.2 99.9317 182.519C98.8077 182.773 97.6492 182.838 96.5039 182.711L85.0283 182.068C82.2816 181.915 79.3207 182.59 77.03 181.091C75.909 180.276 75.1549 179.052 74.9316 177.685C74.6569 176.372 75.0689 174.998 75.1513 173.625Z" fill="#FFC582"/>
<path d="M51.3872 167.758C61.384 167.192 71.4044 167.177 81.4028 167.714C82.3202 172.406 83.5452 177.536 83.1387 182.299C75.1481 184.453 66.7405 184.534 58.7098 182.535C53.2055 181.178 51.3158 173.427 51.3872 167.758Z" fill="#009FCF"/>
<g style="mix-blend-mode:multiply" opacity="0.18">
<path d="M75.8768 167.615C72.2984 165.816 68.4162 164.698 64.4287 164.319C65.0546 158.605 65.187 152.846 64.8242 147.109C66.2855 151.723 67.3402 156.447 67.2743 161.304C70.6581 162.529 73.9981 164.545 75.8768 167.615Z" fill="#009FCF"/>
</g>
<path d="M60.8086 179.893H174.955V180.838C174.955 181.448 174.712 182.034 174.28 182.465C173.849 182.897 173.263 183.14 172.653 183.14H63.1103C62.4999 183.14 61.9144 182.897 61.4827 182.465C61.0511 182.034 60.8086 181.448 60.8086 180.838V179.893Z" fill="#E0E8FF"/>
<g style="mix-blend-mode:multiply">
<path d="M60.8086 179.893H174.955V180.838C174.955 181.448 174.712 182.034 174.28 182.465C173.849 182.897 173.263 183.14 172.653 183.14H63.1103C62.4999 183.14 61.9144 182.897 61.4827 182.465C61.0511 182.034 60.8086 181.448 60.8086 180.838V179.893Z" fill="#D0D8ED"/>
</g>
<g style="mix-blend-mode:multiply">
<path d="M100.575 180.838V179.893H60.8086V180.838C60.81 181.448 61.053 182.033 61.4843 182.464C61.9157 182.895 62.5003 183.138 63.1103 183.14H98.2676C98.5704 183.14 98.8703 183.081 99.1501 182.966C99.43 182.851 99.6844 182.681 99.8987 182.467C100.113 182.254 100.283 182 100.399 181.72C100.515 181.44 100.575 181.141 100.575 180.838V180.838Z" fill="#D0D8ED"/>
</g>
<path d="M174.954 179.893H100.575L117.159 134.298C117.495 133.442 118.068 132.698 118.81 132.154C119.551 131.609 120.432 131.286 121.35 131.222H189.589C191.286 131.222 192.16 132.601 191.539 134.298L174.954 179.893Z" fill="#A9BAFF"/>
<path d="M151.393 155.574C150.432 158.211 147.515 160.348 144.878 160.348C142.242 160.348 140.879 158.211 141.841 155.574C142.802 152.937 145.719 150.795 148.356 150.795C150.992 150.795 152.355 152.937 151.393 155.574Z" fill="#C5CCE0"/>
<g style="mix-blend-mode:multiply">
<path d="M92.6037 182.112H90.0219C89.866 182.112 89.7165 182.05 89.6062 181.94C89.496 181.83 89.4341 181.68 89.4341 181.525C89.4341 181.369 89.496 181.219 89.6062 181.109C89.7165 180.999 89.866 180.937 90.0219 180.937H92.6037C92.7596 180.937 92.9091 180.999 93.0194 181.109C93.1296 181.219 93.1915 181.369 93.1915 181.525C93.1915 181.68 93.1296 181.83 93.0194 181.94C92.9091 182.05 92.7596 182.112 92.6037 182.112Z" fill="#D0D8ED"/>
</g>
<g style="mix-blend-mode:multiply">
<path d="M87.3685 182.112H84.7866C84.6302 182.112 84.4802 182.051 84.3691 181.941C84.258 181.83 84.1948 181.681 84.1934 181.525C84.1948 181.368 84.258 181.219 84.3691 181.109C84.4802 180.999 84.6302 180.937 84.7866 180.937H87.3685C87.5244 180.937 87.6739 180.999 87.7841 181.109C87.8944 181.219 87.9563 181.369 87.9563 181.525V181.525C87.9563 181.68 87.8944 181.83 87.7841 181.94C87.6739 182.05 87.5244 182.112 87.3685 182.112V182.112Z" fill="#D0D8ED"/>
</g>
<g style="mix-blend-mode:multiply">
<path d="M82.1336 182.112H79.5518C79.4741 182.113 79.3971 182.098 79.3252 182.069C79.2532 182.04 79.1878 181.997 79.1326 181.942C79.0774 181.887 79.0336 181.822 79.0038 181.751C78.9739 181.679 78.9585 181.602 78.9585 181.525V181.525C78.9585 181.447 78.9739 181.37 79.0038 181.298C79.0336 181.227 79.0774 181.162 79.1326 181.107C79.1878 181.052 79.2532 181.009 79.3252 180.98C79.3971 180.951 79.4741 180.936 79.5518 180.937H82.1336C82.2895 180.937 82.439 180.999 82.5493 181.109C82.6595 181.219 82.7214 181.369 82.7214 181.525C82.7214 181.68 82.6595 181.83 82.5493 181.94C82.439 182.05 82.2895 182.112 82.1336 182.112Z" fill="#D0D8ED"/>
</g>
<path d="M50.5248 176.921C48.972 176.921 47.454 176.461 46.163 175.598C44.872 174.735 43.8658 173.509 43.2718 172.074C42.6778 170.639 42.5227 169.061 42.826 167.538C43.1294 166.015 43.8776 164.616 44.976 163.518C46.0743 162.421 47.4736 161.674 48.9967 161.371C50.5198 161.069 52.0984 161.225 53.5327 161.82C54.967 162.415 56.1926 163.422 57.0545 164.714C57.9164 166.006 58.3758 167.524 58.3748 169.077C58.3719 171.157 57.5437 173.152 56.072 174.622C54.6003 176.093 52.6053 176.92 50.5248 176.921V176.921ZM50.5248 163.682C49.4579 163.682 48.4149 163.999 47.5278 164.591C46.6407 165.184 45.9492 166.027 45.541 167.012C45.1327 167.998 45.0258 169.083 45.234 170.129C45.4421 171.175 45.9559 172.137 46.7103 172.891C47.4648 173.646 48.426 174.159 49.4724 174.367C50.5188 174.576 51.6034 174.469 52.5892 174.06C53.5749 173.652 54.4174 172.961 55.0101 172.074C55.6029 171.187 55.9192 170.144 55.9192 169.077C55.9149 167.648 55.3448 166.28 54.3338 165.271C53.3227 164.262 51.9531 163.695 50.5248 163.693V163.682Z" fill="#D6D6D6"/>
<path d="M28.6504 176.372C28.6475 177.313 28.7732 178.25 29.024 179.157C29.3502 180.304 30.0429 181.312 30.9961 182.028C31.9494 182.745 33.1108 183.129 34.3031 183.123H43.9329C45.1245 183.129 46.2851 182.744 47.2374 182.028C48.1897 181.312 48.8813 180.303 49.2065 179.157C49.4591 178.25 49.5866 177.313 49.5855 176.372V160.408H28.6504V176.372Z" fill="white"/>
<path opacity="0.1" d="M43.9715 160.408V176.372C43.9745 177.313 43.8488 178.25 43.5979 179.157C43.2717 180.304 42.5791 181.312 41.6258 182.028C40.6726 182.745 39.5111 183.129 38.3188 183.123H43.933C45.1246 183.129 46.2852 182.744 47.2376 182.028C48.1899 181.312 48.8815 180.303 49.2066 179.157C49.4593 178.25 49.5868 177.313 49.5857 176.372V160.408H43.9715Z" fill="black"/>
<g style="mix-blend-mode:screen">
<path d="M145.703 44.5593C145.702 44.0968 145.676 43.6347 145.626 43.175L147.603 42.318C147.5 41.6378 147.347 40.9659 147.147 40.3074L144.983 40.3953C144.675 39.5206 144.272 38.6824 143.78 37.8959L145.197 36.2479C144.805 35.6849 144.376 35.149 143.912 34.6438L142.017 35.6601C141.351 35.0046 140.614 34.426 139.819 33.9352L140.369 31.8477C139.77 31.5054 139.148 31.2062 138.506 30.9523L137.232 32.6937C136.356 32.3903 135.45 32.1822 134.529 32.0729L134.139 29.958C133.793 29.958 133.452 29.9196 133.101 29.9196C132.749 29.9196 132.414 29.9196 132.068 29.958L131.678 32.0729C130.758 32.1822 129.851 32.3903 128.975 32.6937L127.695 30.9523C127.057 31.2073 126.436 31.5065 125.839 31.8477L126.388 33.9352C125.593 34.426 124.856 35.0046 124.191 35.6601L122.367 34.6438C121.899 35.151 121.468 35.6907 121.076 36.2589L122.493 37.9069C122 38.6921 121.596 39.5306 121.29 40.4063L119.126 40.3184C118.926 40.9769 118.774 41.6488 118.67 42.329L120.648 43.186C120.538 44.1074 120.538 45.0386 120.648 45.9601L118.67 46.8171C118.774 47.4973 118.926 48.1692 119.126 48.8276L121.29 48.7397C121.596 49.6137 122 50.4503 122.493 51.2337L121.076 52.8817C121.469 53.4489 121.9 53.9885 122.367 54.4967L124.262 53.4805C124.928 54.1359 125.665 54.7146 126.459 55.2054L125.91 57.2928C126.508 57.634 127.128 57.9332 127.767 58.1883L129.047 56.4414C129.922 56.7492 130.828 56.9592 131.75 57.0676L132.14 59.1825C132.486 59.1825 132.826 59.221 133.172 59.221C133.518 59.221 133.864 59.221 134.211 59.1825L134.601 57.0676C135.522 56.9592 136.428 56.7492 137.303 56.4414L138.578 58.1883C139.219 57.9344 139.841 57.6351 140.44 57.2928L139.891 55.2054C140.685 54.7146 141.423 54.1359 142.088 53.4805L143.912 54.4748C144.377 53.9651 144.808 53.4256 145.203 52.8597L143.785 51.2117C144.277 50.4272 144.68 49.5908 144.988 48.7177L147.153 48.8056C147.353 48.1472 147.505 47.4753 147.609 46.7951L145.631 45.9381C145.68 45.4801 145.704 45.0198 145.703 44.5593ZM133.134 53.453C131.375 53.453 129.655 52.9314 128.193 51.9541C126.73 50.9769 125.59 49.5879 124.917 47.9628C124.244 46.3377 124.068 44.5494 124.411 42.8242C124.754 41.099 125.601 39.5143 126.845 38.2705C128.089 37.0267 129.674 36.1796 131.399 35.8365C133.124 35.4933 134.912 35.6694 136.537 36.3426C138.162 37.0157 139.551 38.1556 140.529 39.6182C141.506 41.0808 142.028 42.8003 142.028 44.5593C142.028 46.918 141.091 49.1802 139.423 50.8481C137.755 52.516 135.493 53.453 133.134 53.453V53.453Z" fill="#E0E8FF"/>
</g>
<g style="mix-blend-mode:screen">
<path d="M41.1037 99.2729C41.1022 98.8837 41.0783 98.4948 41.0323 98.1083L42.6803 97.3942C42.5924 96.8236 42.4639 96.26 42.2958 95.7077L40.483 95.7791C40.221 95.0477 39.8822 94.3461 39.4722 93.6862L40.6588 92.3183C40.3254 91.8404 39.9582 91.387 39.5601 90.9615L37.9725 91.813C37.4197 91.2656 36.8081 90.7811 36.1487 90.3682L36.6212 88.6213C36.1199 88.3332 35.5985 88.0817 35.0611 87.8687L34.0448 89.33C33.3115 89.0623 32.5505 88.8781 31.776 88.7806L31.4464 87.0063C31.1608 87.0063 30.8971 86.9733 30.5785 86.9733C30.2599 86.9733 30.0292 86.9733 29.716 87.0063L29.3864 88.7806C28.612 88.8781 27.8509 89.0623 27.1177 89.33L26.019 87.8687C25.482 88.0828 24.9607 88.3343 24.4589 88.6213L24.9368 90.3682C24.2775 90.7811 23.6659 91.2656 23.1131 91.813L21.52 90.9615C21.1235 91.3884 20.7564 91.8417 20.4213 92.3183L21.6134 93.6862C21.199 94.3437 20.86 95.0458 20.6026 95.7791L18.7898 95.7077C18.6217 96.26 18.4932 96.8236 18.4053 97.3942L20.0533 98.1083C19.9654 98.8822 19.9654 99.6636 20.0533 100.437L18.4053 101.157C18.4938 101.728 18.6223 102.291 18.7898 102.844L20.6026 102.767C20.8589 103.5 21.198 104.203 21.6134 104.86L20.4213 106.233C20.7565 106.708 21.1235 107.159 21.52 107.584L23.1131 106.738C23.6673 107.284 24.2788 107.768 24.9368 108.183L24.4589 109.93C24.9607 110.217 25.482 110.468 26.019 110.683L27.1177 109.221C27.8535 109.474 28.614 109.649 29.3864 109.743L29.716 111.518C30.0017 111.518 30.2654 111.55 30.5785 111.55C30.8916 111.55 31.1608 111.551 31.4464 111.518L31.776 109.743C32.5485 109.649 33.309 109.474 34.0448 109.221L35.1105 110.683C35.648 110.47 36.1694 110.218 36.6706 109.93L36.1982 108.183C36.8563 107.768 37.4677 107.284 38.022 106.738L39.6095 107.584C40.0076 107.161 40.3748 106.709 40.7082 106.233L39.5216 104.86C39.9327 104.2 40.2716 103.499 40.5324 102.767L42.3452 102.844C42.5128 102.291 42.6413 101.728 42.7297 101.157L41.0817 100.437C41.1114 100.05 41.1188 99.6612 41.1037 99.2729ZM30.562 106.727C29.0877 106.727 27.6464 106.29 26.4205 105.471C25.1947 104.652 24.2392 103.488 23.675 102.126C23.1108 100.763 22.9632 99.2646 23.2508 97.8186C23.5384 96.3726 24.2484 95.0443 25.2909 94.0018C26.3334 92.9593 27.6617 92.2493 29.1077 91.9617C30.5538 91.6741 32.0526 91.8217 33.4147 92.3859C34.7768 92.9501 35.9411 93.9056 36.7602 95.1314C37.5793 96.3573 38.0165 97.7985 38.0165 99.2729C38.0165 101.25 37.2311 103.146 35.8331 104.544C34.4351 105.942 32.5391 106.727 30.562 106.727V106.727Z" fill="#E0E8FF"/>
</g>
<g style="mix-blend-mode:screen">
<path d="M191.539 116.33C191.539 116.045 191.522 115.761 191.489 115.478L192.703 114.956C192.639 114.538 192.545 114.125 192.423 113.72L191.094 113.775C190.908 113.238 190.661 112.724 190.358 112.243L191.226 111.243C190.985 110.895 190.721 110.565 190.435 110.254L189.276 110.875C188.868 110.475 188.418 110.12 187.935 109.815L188.287 108.54C187.92 108.33 187.538 108.146 187.144 107.991L186.364 109.062C185.831 108.873 185.278 108.745 184.716 108.683L184.474 107.381C184.266 107.381 184.051 107.381 183.843 107.381C183.634 107.381 183.414 107.381 183.205 107.381L182.969 108.683C182.407 108.744 181.854 108.871 181.321 109.062L180.536 107.991C180.142 108.146 179.76 108.33 179.393 108.54L179.745 109.815C179.262 110.118 178.815 110.474 178.41 110.875L177.245 110.254C176.958 110.564 176.693 110.894 176.454 111.243L177.322 112.243C177.023 112.726 176.776 113.24 176.586 113.775L175.224 113.748C175.097 114.152 175.002 114.565 174.938 114.984L176.152 115.506C176.125 115.786 176.103 116.055 176.103 116.357C176.103 116.659 176.103 116.906 176.152 117.209L174.938 117.758C175.002 118.177 175.097 118.59 175.224 118.994L176.548 118.934C176.737 119.469 176.984 119.983 177.284 120.466L176.432 121.438C176.674 121.785 176.938 122.115 177.223 122.427L178.388 121.807C178.791 122.207 179.239 122.561 179.723 122.861L179.371 124.141C179.738 124.352 180.12 124.535 180.514 124.691L181.299 123.625C181.833 123.81 182.386 123.937 182.947 124.004L183.183 125.3C183.392 125.3 183.606 125.328 183.821 125.328C184.035 125.328 184.244 125.328 184.452 125.3L184.694 124.004C185.255 123.936 185.808 123.809 186.342 123.625L187.122 124.691C187.516 124.535 187.898 124.352 188.265 124.141L187.913 122.861C188.397 122.56 188.847 122.206 189.254 121.807L190.413 122.427C190.698 122.115 190.962 121.785 191.204 121.438L190.336 120.433C190.64 119.953 190.887 119.438 191.072 118.901L192.401 118.961C192.523 118.556 192.617 118.143 192.681 117.725L191.467 117.176C191.508 116.895 191.532 116.613 191.539 116.33V116.33ZM183.848 121.785C182.769 121.786 181.714 121.467 180.816 120.868C179.918 120.269 179.218 119.418 178.805 118.421C178.391 117.424 178.282 116.327 178.492 115.269C178.702 114.21 179.221 113.238 179.984 112.474C180.746 111.711 181.718 111.191 182.776 110.98C183.835 110.769 184.932 110.877 185.929 111.289C186.926 111.702 187.778 112.401 188.378 113.299C188.977 114.196 189.298 115.251 189.298 116.33C189.298 117.047 189.157 117.758 188.883 118.421C188.608 119.083 188.205 119.686 187.698 120.192C187.19 120.699 186.587 121.101 185.923 121.374C185.26 121.647 184.549 121.787 183.832 121.785H183.848Z" fill="#E0E8FF"/>
</g>
<path d="M157.277 92.4557H138.165C136.677 92.4571 135.25 93.0491 134.197 94.1016C133.145 95.1542 132.553 96.5813 132.551 98.0698V107.2C132.553 108.688 133.145 110.115 134.197 111.168C135.25 112.221 136.677 112.813 138.165 112.814H138.808L137.506 114.649C137.413 114.778 137.365 114.935 137.369 115.094C137.373 115.253 137.43 115.407 137.529 115.531C137.629 115.656 137.766 115.744 137.921 115.783C138.075 115.822 138.238 115.81 138.385 115.747L144.483 113.166C145.029 112.935 145.615 112.817 146.208 112.819H157.277C158.765 112.818 160.191 112.226 161.243 111.173C162.295 110.12 162.885 108.693 162.885 107.205V98.0698C162.885 96.5818 162.295 95.1547 161.243 94.102C160.191 93.0493 158.765 92.4571 157.277 92.4557V92.4557Z" fill="white"/>
<path d="M159.04 99.2729H136.402C136.144 99.2729 135.896 99.1706 135.713 98.9884C135.529 98.8062 135.426 98.5589 135.424 98.3006V98.3006C135.426 98.0422 135.529 97.7949 135.713 97.6127C135.896 97.4305 136.144 97.3282 136.402 97.3282H159.04C159.298 97.3282 159.545 97.4307 159.728 97.613C159.91 97.7954 160.012 98.0427 160.012 98.3006C160.012 98.5584 159.91 98.8057 159.728 98.9881C159.545 99.1704 159.298 99.2729 159.04 99.2729Z" fill="#EDEDED"/>
<path d="M159.04 103.607H136.402C136.144 103.607 135.896 103.505 135.713 103.323C135.529 103.14 135.426 102.893 135.424 102.635V102.635C135.426 102.376 135.529 102.129 135.713 101.947C135.896 101.765 136.144 101.663 136.402 101.663H159.04C159.298 101.663 159.545 101.765 159.728 101.947C159.91 102.13 160.012 102.377 160.012 102.635C160.012 102.893 159.91 103.14 159.728 103.322C159.545 103.505 159.298 103.607 159.04 103.607Z" fill="#EDEDED"/>
<path d="M149.125 107.941H136.402C136.144 107.941 135.896 107.839 135.713 107.657C135.529 107.475 135.426 107.227 135.424 106.969V106.969C135.426 106.711 135.529 106.463 135.713 106.281C135.896 106.099 136.144 105.997 136.402 105.997H149.125C149.383 105.997 149.631 106.099 149.814 106.281C149.997 106.463 150.101 106.711 150.102 106.969V106.969C150.101 107.227 149.997 107.475 149.814 107.657C149.631 107.839 149.383 107.941 149.125 107.941V107.941Z" fill="#EDEDED"/>
<path d="M187.474 37.8354H169.28C163.109 37.8354 158.106 42.838 158.106 49.0089V67.2028C158.106 73.3737 163.109 78.3762 169.28 78.3762H187.474C193.645 78.3762 198.647 73.3737 198.647 67.2028V49.0089C198.647 42.838 193.645 37.8354 187.474 37.8354Z" fill="#758AFF"/>
<path d="M167.626 68.4388C166.381 67.0274 165.426 65.3846 164.816 63.6041C164.206 61.8237 163.952 59.9404 164.07 58.062C164.188 56.1835 164.674 54.3466 165.501 52.6561C166.329 50.9657 167.481 49.4547 168.893 48.2096C170.304 46.9645 171.947 46.0095 173.727 45.3993C175.508 44.7891 177.391 44.5355 179.27 44.6531C181.148 44.7707 182.985 45.2571 184.675 46.0846C186.366 46.9121 187.877 48.0644 189.122 49.4758C189.221 49.5884 189.298 49.7194 189.347 49.8615C189.396 50.0035 189.416 50.1539 189.407 50.3038C189.398 50.4538 189.359 50.6005 189.293 50.7355C189.227 50.8706 189.136 50.9913 189.023 51.0909C188.911 51.1904 188.779 51.2668 188.637 51.3157C188.495 51.3646 188.345 51.3851 188.195 51.3759C188.045 51.3667 187.898 51.3281 187.763 51.2622C187.628 51.1964 187.508 51.1045 187.408 50.992C185.465 48.7981 182.788 47.388 179.88 47.0256C176.972 46.6632 174.031 47.3734 171.609 49.0232C169.186 50.6731 167.449 53.1494 166.721 55.9884C165.993 58.8274 166.325 61.8343 167.655 64.4461C168.985 67.0578 171.221 69.0952 173.945 70.1767C176.669 71.2582 179.694 71.3095 182.453 70.3212C185.212 69.3329 187.516 67.3726 188.934 64.8075C190.352 62.2424 190.786 59.2485 190.155 56.3864C190.09 56.09 190.145 55.7799 190.309 55.5244C190.473 55.2689 190.732 55.0889 191.028 55.0241C191.325 54.9593 191.635 55.0149 191.89 55.1787C192.146 55.3425 192.326 55.6011 192.39 55.8975C193.071 58.9993 192.701 62.2391 191.34 65.1081C189.979 67.977 187.703 70.3124 184.87 71.7473C182.038 73.1822 178.808 73.6354 175.69 73.0355C172.572 72.4357 169.741 70.8168 167.643 68.4333L167.626 68.4388Z" fill="white"/>
<path d="M181.266 51.4589C181.103 51.2735 181.003 51.0406 180.981 50.7942C180.969 50.6441 180.986 50.493 181.033 50.3498C181.08 50.2066 181.154 50.074 181.252 49.9596C181.35 49.8452 181.47 49.7514 181.604 49.6834C181.739 49.6155 181.885 49.5748 182.035 49.5637L187.045 49.1737L186.655 44.1638C186.651 43.8714 186.758 43.5882 186.955 43.3721C187.152 43.1559 187.424 43.0231 187.715 43.0006C188.007 42.9782 188.296 43.0679 188.524 43.2514C188.751 43.4349 188.9 43.6983 188.941 43.988L189.413 50.1405C189.427 50.2898 189.411 50.4404 189.364 50.5831C189.318 50.7258 189.243 50.8574 189.144 50.97C189.046 51.0841 188.927 51.1779 188.793 51.2457C188.659 51.3136 188.513 51.3543 188.364 51.3655L182.211 51.8434C182.035 51.8569 181.857 51.8292 181.693 51.7625C181.529 51.6957 181.383 51.5918 181.266 51.4589V51.4589Z" fill="white"/>
<path d="M169.333 62.2844C169.53 62.128 169.62 62.0556 169.602 62.0672C170.17 61.5979 170.616 61.2127 170.941 60.9114C171.271 60.6102 171.549 60.2944 171.775 59.9642C172.001 59.634 172.114 59.3125 172.114 58.9996C172.114 58.7621 172.059 58.5767 171.949 58.4435C171.839 58.3102 171.674 58.2436 171.453 58.2436C171.233 58.2436 171.059 58.3276 170.932 58.4956C170.81 58.6578 170.75 58.8896 170.75 59.1908H169.316C169.327 58.6984 169.432 58.287 169.629 57.9568C169.831 57.6266 170.095 57.3833 170.419 57.2269C170.75 57.0704 171.115 56.9922 171.514 56.9922C172.204 56.9922 172.722 57.1689 173.07 57.5223C173.423 57.8757 173.6 58.3363 173.6 58.904C173.6 59.5239 173.388 60.1004 172.965 60.6333C172.543 61.1605 172.004 61.6761 171.349 62.1802H173.695V63.3881H169.333V62.2844ZM174.384 62.3453V61.1461L177.13 57.2182H178.79V61.0592H179.503V62.3453H178.79V63.475H177.304V62.3453H174.384ZM177.409 58.8519L175.949 61.0592H177.409V58.8519ZM183.689 55.2195L181.36 65.1H179.927L182.255 55.2195H183.689ZM188.218 58.2436L186.037 63.475H184.516L186.723 58.4087H184.021V57.14H188.218V58.2436Z" fill="white"/>
</g>
<defs>
<clipPath id="clip0_8_1131">
<rect width="206" height="206" fill="white" transform="translate(0.5)"/>
</clipPath>
</defs>
</svg>
