<svg width="216" height="184" viewBox="0 0 216 184" fill="none" xmlns="http://www.w3.org/2000/svg">
<g clip-path="url(#clip0_6_979)">
<path d="M215.494 177.534C215.494 180.641 169.809 184 115.094 184C60.3785 184 15.709 181.203 15.709 178.096C15.709 174.989 215.494 174.427 215.494 177.534Z" fill="#D0DBFC"/>
<path d="M202.247 132.964H143.252C139.627 132.964 136.689 135.9 136.689 139.522V171.354C136.689 174.976 139.627 177.912 143.252 177.912H202.247C205.872 177.912 208.811 174.976 208.811 171.354V139.522C208.811 135.9 205.872 132.964 202.247 132.964Z" fill="#736BE5"/>
<path d="M195.294 133.147H136.299C132.674 133.147 129.735 136.084 129.735 139.705V171.538C129.735 175.16 132.674 178.096 136.299 178.096H195.294C198.919 178.096 201.857 175.16 201.857 171.538V139.705C201.857 136.084 198.919 133.147 195.294 133.147Z" fill="#9D99E5"/>
<path d="M169.379 145.994H158.283C156.572 146.03 154.872 145.724 153.28 145.095C151.689 144.466 150.24 143.526 149.017 142.33C147.794 141.133 146.823 139.705 146.16 138.129C145.496 136.553 145.155 134.86 145.155 133.15C145.155 131.44 145.496 129.748 146.16 128.172C146.823 126.595 147.794 125.167 149.017 123.971C150.24 122.775 151.689 121.835 153.28 121.205C154.872 120.576 156.572 120.271 158.283 120.307H169.379C172.741 120.378 175.942 121.762 178.294 124.163C180.647 126.564 181.964 129.79 181.964 133.15C181.964 136.51 180.647 139.737 178.294 142.138C175.942 144.539 172.741 145.923 169.379 145.994V145.994ZM158.283 125.753C156.327 125.753 154.45 126.529 153.066 127.912C151.683 129.294 150.905 131.169 150.905 133.125C150.905 135.08 151.683 136.955 153.066 138.337C154.45 139.72 156.327 140.496 158.283 140.496H169.379C171.336 140.496 173.212 139.72 174.596 138.337C175.98 136.955 176.757 135.08 176.757 133.125C176.757 131.169 175.98 129.294 174.596 127.912C173.212 126.529 171.336 125.753 169.379 125.753H158.283Z" fill="#9D99E5"/>
<path d="M129.735 142.107C129.743 139.685 130.709 137.363 132.424 135.65C134.138 133.937 136.462 132.972 138.886 132.964H196.2C201.249 132.964 202.167 136.593 201.857 142.107H129.735Z" fill="#BDBDFF"/>
<path d="M175.724 155.561H168.071V149.112C167.998 148.561 167.727 148.056 167.308 147.69C166.89 147.324 166.352 147.122 165.796 147.122C165.24 147.122 164.703 147.324 164.284 147.69C163.866 148.056 163.595 148.561 163.521 149.112V155.561H155.868C155.259 155.561 154.676 155.803 154.245 156.233C153.815 156.663 153.573 157.246 153.573 157.854C153.573 158.462 153.815 159.046 154.245 159.476C154.676 159.906 155.259 160.147 155.868 160.147H163.521V169.004C163.478 169.328 163.505 169.657 163.599 169.97C163.694 170.282 163.854 170.571 164.07 170.817C164.285 171.063 164.551 171.26 164.848 171.395C165.146 171.53 165.469 171.6 165.796 171.6C166.123 171.6 166.446 171.53 166.744 171.395C167.042 171.26 167.307 171.063 167.523 170.817C167.738 170.571 167.898 170.282 167.993 169.97C168.088 169.657 168.114 169.328 168.071 169.004V160.096H175.724C176.333 160.096 176.917 159.854 177.347 159.424C177.777 158.994 178.019 158.411 178.019 157.803C178.006 157.204 177.758 156.634 177.329 156.215C176.9 155.796 176.324 155.561 175.724 155.561V155.561Z" fill="white"/>
<path d="M133.809 0H64.1882C57.3568 0 51.8188 5.53338 51.8188 12.3591V165.65C51.8188 172.476 57.3568 178.01 64.1882 178.01H133.809C140.64 178.01 146.178 172.476 146.178 165.65V12.3591C146.178 5.53338 140.64 0 133.809 0Z" fill="#0065AA"/>
<path d="M118.484 9.24643H80.0971C79.0015 9.24643 77.9508 8.81159 77.1762 8.03756C76.4015 7.26353 75.9663 6.21372 75.9663 5.11908V2.41336H122.609V5.11908C122.61 5.66082 122.504 6.19739 122.297 6.69811C122.09 7.19883 121.786 7.65387 121.403 8.03721C121.02 8.42055 120.565 8.72466 120.064 8.93215C119.563 9.13964 119.027 9.24643 118.484 9.24643V9.24643Z" fill="#0065AA"/>
<path d="M197.348 30.2215C196.051 17.5528 173.143 14.0445 151.192 16.6413C129.242 19.2381 128.399 24.2081 128.972 39.1927C129.162 44.1054 130.51 47.9978 132.701 51.0704C131.353 55.6563 125.937 56.6136 126.689 57.3359C130.561 61.0448 137.371 57.6397 139.012 56.734C149.603 62.9422 166.39 62.0365 178.501 60.3282C194.588 58.0353 198.776 44.1112 197.348 30.2215Z" fill="#6F6FD8"/>
<path d="M153.522 38.2641C153.528 38.7258 153.398 39.1791 153.146 39.5663C152.894 39.9535 152.533 40.2572 152.108 40.4386C151.683 40.6201 151.213 40.6711 150.759 40.5852C150.305 40.4993 149.887 40.2804 149.558 39.9564C149.229 39.6323 149.003 39.2177 148.911 38.7653C148.818 38.3129 148.862 37.8432 149.037 37.4159C149.212 36.9887 149.511 36.6231 149.895 36.3658C150.278 36.1085 150.73 35.9711 151.192 35.9711C151.805 35.9695 152.393 36.2095 152.829 36.6389C153.265 37.0683 153.514 37.6523 153.522 38.2641V38.2641Z" fill="white"/>
<path d="M165.03 38.2641C165.037 38.7258 164.906 39.1791 164.655 39.5663C164.403 39.9536 164.042 40.2572 163.617 40.4387C163.192 40.6201 162.722 40.6711 162.268 40.5852C161.814 40.4994 161.396 40.2805 161.067 39.9564C160.737 39.6323 160.512 39.2177 160.419 38.7653C160.327 38.3129 160.371 37.8432 160.546 37.416C160.721 36.9887 161.02 36.6231 161.404 36.3658C161.787 36.1086 162.239 35.9712 162.701 35.9711C163.313 35.971 163.9 36.2115 164.336 36.6406C164.772 37.0696 165.021 37.6528 165.03 38.2641V38.2641Z" fill="white"/>
<path d="M176.091 38.2641C176.098 38.7258 175.967 39.1791 175.716 39.5663C175.464 39.9535 175.103 40.2572 174.678 40.4386C174.253 40.6201 173.783 40.6711 173.329 40.5852C172.875 40.4993 172.457 40.2804 172.128 39.9564C171.798 39.6323 171.573 39.2177 171.48 38.7653C171.388 38.3129 171.432 37.8432 171.607 37.4159C171.782 36.9887 172.081 36.6231 172.465 36.3658C172.848 36.1085 173.3 35.9711 173.762 35.9711C174.374 35.9695 174.963 36.2095 175.399 36.6389C175.835 37.0683 176.084 37.6523 176.091 38.2641V38.2641Z" fill="white"/>
<path d="M91.6292 72.9396C91.8644 72.567 100.809 77.044 110.797 71.1912C120.785 65.3384 114.962 126.899 114.962 126.899L114.148 158.857L113 174.289H88.0435L82.9316 125.753C82.9316 125.753 88.1467 78.4485 91.6292 72.9396Z" fill="#5DCEC1"/>
<path d="M136.7 82.0255C132.627 78.523 113.861 71.4091 113.861 71.4091L110.797 76.8778C110.797 76.8778 111.789 144.698 111.279 158.668V174.306H134.176L134.291 138.989C140.917 137.309 146.006 134.523 148.8 131.462C151.978 127.988 152.741 126.034 152.741 121.413C152.741 116.793 140.779 85.5281 136.7 82.0255Z" fill="white"/>
<path d="M89.5694 132.632C89.7874 132.282 89.9022 132.058 89.9022 132.058V72.0224C89.9022 72.0224 71.1359 79.1306 67.0625 82.6332C62.9892 86.1357 51.1305 118.518 50.9985 123.139C50.551 141.454 66.4888 164.561 66.4888 164.561C67.0126 164.308 67.5119 164.006 67.9805 163.661C67.6707 167.932 67.1371 174.306 67.1371 174.306H92.0134C92.0134 174.306 92.0995 155.326 92.0134 154.461C91.9905 153.945 90.648 142.124 89.5694 132.632Z" fill="white"/>
<path d="M129.483 116.265L125.295 118.753C125.247 118.782 125.193 118.796 125.137 118.796C125.082 118.796 125.027 118.782 124.979 118.753L120.55 116.265C120.499 116.243 120.455 116.207 120.423 116.162C120.391 116.116 120.371 116.063 120.367 116.007V106.715C120.367 106.632 120.4 106.551 120.459 106.492C120.518 106.433 120.599 106.4 120.682 106.4H129.288C129.371 106.401 129.449 106.435 129.507 106.494C129.565 106.553 129.598 106.633 129.598 106.715V116.007C129.601 116.057 129.593 116.106 129.573 116.151C129.553 116.196 129.522 116.235 129.483 116.265V116.265Z" fill="#D5E1ED"/>
<path d="M129.483 116.265L125.295 118.753C125.247 118.782 125.193 118.796 125.137 118.796C125.082 118.796 125.027 118.782 124.979 118.753L120.55 116.265C120.499 116.243 120.455 116.207 120.423 116.162C120.391 116.116 120.371 116.063 120.367 116.007V108.59C120.367 108.506 120.4 108.426 120.459 108.367C120.518 108.308 120.599 108.274 120.682 108.274H129.288C129.371 108.276 129.449 108.31 129.507 108.369C129.565 108.428 129.598 108.507 129.598 108.59V116.007C129.601 116.057 129.593 116.106 129.573 116.151C129.553 116.196 129.522 116.235 129.483 116.265V116.265Z" fill="#B8DDFF"/>
<g opacity="0.5">
<path opacity="0.5" d="M111.279 159.282V66.1925C111.279 66.1925 112.065 67.6371 114.951 70.5549C118.554 74.2122 121.646 79.7268 121.646 79.7268L115.134 78.4657L123.591 86.9726L117.228 124.337L112.725 125.007L115.593 134.053L111.279 159.282Z" fill="#8FA7D7"/>
</g>
<g opacity="0.5">
<path opacity="0.5" d="M87.0395 70.5033C83.4308 74.1549 80.3442 79.6752 80.3442 79.6752L86.8501 78.4198L78.3936 86.921L92.0365 157.396L90.7112 66.1352C90.7112 66.1352 89.9195 67.5798 87.0395 70.5033Z" fill="#8FA7D7"/>
</g>
<path d="M111.279 155.384L109.862 65.4702C109.862 65.4702 111.325 66.1008 114.211 69.0186C117.814 72.6702 120.229 78.9988 120.229 78.9988L113.717 77.7434L122.174 86.2446L116.115 124.692L113.012 125.409L115.306 129.995L111.279 155.384Z" fill="white"/>
<path d="M92.0365 154.461V65.4702C92.0365 65.4702 90.5736 66.1008 87.6935 69.0186C84.0848 72.6702 81.6695 78.9988 81.6695 78.9988L88.1812 77.7434L79.7246 86.2446L92.0365 154.461Z" fill="white"/>
<path d="M102.163 161.724C98.7816 161.735 95.4063 161.445 92.0767 160.858V160.336C92.1742 160.336 102.065 162.308 111.279 160.336V160.858C108.279 161.468 105.223 161.758 102.163 161.724V161.724Z" fill="#38A595"/>
<path d="M100.906 81.1828C97.8555 81.1991 94.8348 80.5802 92.0366 79.3657V78.7466C92.1284 78.7867 101.216 83.0975 110.069 78.351V78.9644C107.251 80.464 104.099 81.2271 100.906 81.1828V81.1828Z" fill="#38A595"/>
<path opacity="0.5" d="M59.2773 123.162C59.2773 123.162 66.0529 124.463 69.5755 127.982C69.5755 127.982 60.7977 123.597 59.2773 123.162Z" fill="#8FA7D7"/>
<path d="M77.2404 153.331L78.6575 155.051C78.6575 155.051 75.7889 162.039 72.6277 165.725L70.0518 162.154C72.9806 159.689 75.4192 156.697 77.2404 153.331Z" fill="#FFCCA9"/>
<path opacity="0.5" d="M67.2976 123.162C67.4582 123.431 69.7359 125.598 70.4932 127.713L66.9189 123.649L67.2976 123.162Z" fill="#8FA7D7"/>
<path opacity="0.5" d="M74.5036 99.6643C74.5036 99.3375 72.4268 126.607 71.5432 130.155L78.3934 151.101C78.3934 151.101 74.779 159.282 68.0034 163.661C68.0034 163.661 72.3407 163.019 79.1679 153.595C79.1679 153.595 75.7543 163.34 70.9294 167.456C70.9294 167.456 78.5139 162.962 80.7399 149.319L73.5857 130.155C73.5857 130.155 74.8306 105.729 74.5036 99.6643Z" fill="#8FA7D7"/>
<path opacity="0.5" d="M134.29 138.989L130.986 139.94L131.491 142.893L134.29 141.815V138.989Z" fill="#8FA7D7"/>
<path opacity="0.5" d="M133.493 118.541L130.98 98.0133L131.76 119.223C123.344 122.416 114.279 126.228 114.279 126.228C114.279 126.228 119.093 124.99 125.008 123.414C130.923 121.837 141.915 115.669 141.915 115.669C139.678 116.294 136.683 117.349 133.493 118.541Z" fill="#8FA7D7"/>
<path opacity="0.1" d="M145.128 98.5235C145.128 98.5235 150.43 112.774 150.487 122.027C150.487 125.466 148.542 128.332 147.125 129.335C133.327 139.356 116.322 139.711 116.322 139.711C116.322 139.711 116.179 142.004 115.857 142.44C115.857 142.44 145.966 140.445 151.72 127.421C152.592 125.784 152.945 123.92 152.73 122.078C152.174 115.933 148.749 107.3 145.128 98.5235Z" fill="#8FA7D7"/>
<path opacity="0.1" d="M61.2739 93.2898C61.4804 92.7166 52.6681 115.113 52.7714 123.162C52.9321 140.067 65.4218 161.385 67.9978 163.661L66.5062 164.561C66.5062 164.561 49.9258 139.952 51.0158 123.139C51.2339 119.814 51.6355 118.346 61.2739 93.2898Z" fill="#8FA7D7"/>
<path d="M115.938 142.302C116.913 132.397 114.062 126.291 114.394 126.142C117.613 124.692 125.611 121.556 132.059 119.051L132.334 104.457L99.4089 103.121L98.6631 151.715L131.468 150.402L131.669 139.803C126.484 140.972 121.23 141.807 115.938 142.302V142.302Z" fill="#AE376D"/>
<path d="M121.268 104.004L121.285 103.413L112.352 102.903L112.335 103.643L121.268 104.004Z" fill="#A1B5BF"/>
<path d="M113.482 104.629C113.482 104.653 113.477 104.677 113.468 104.7C113.458 104.723 113.444 104.743 113.427 104.76C113.409 104.777 113.388 104.791 113.365 104.8C113.342 104.809 113.318 104.813 113.293 104.812C113.244 104.812 113.198 104.793 113.163 104.758C113.129 104.724 113.109 104.677 113.109 104.629C113.109 104.604 113.113 104.58 113.122 104.557C113.131 104.534 113.144 104.513 113.161 104.495C113.178 104.477 113.199 104.463 113.221 104.454C113.244 104.444 113.268 104.439 113.293 104.439C113.343 104.439 113.391 104.459 113.427 104.495C113.462 104.53 113.482 104.578 113.482 104.629V104.629Z" fill="#A1B5BF"/>
<path d="M120.567 104.927C120.567 104.949 120.561 104.971 120.548 104.99C120.535 105.009 120.518 105.024 120.497 105.033C120.476 105.041 120.453 105.044 120.43 105.039C120.408 105.035 120.388 105.024 120.371 105.008C120.355 104.992 120.345 104.971 120.34 104.949C120.336 104.927 120.338 104.904 120.347 104.883C120.355 104.862 120.37 104.844 120.389 104.831C120.408 104.819 120.43 104.812 120.453 104.812C120.483 104.812 120.512 104.824 120.534 104.846C120.555 104.867 120.567 104.896 120.567 104.927Z" fill="#A1B5BF"/>
<path d="M115.346 53.7589C114.405 57.1353 112.753 59.7206 112.03 59.5257C112.03 59.5257 112.541 57.3703 113.212 53.9309C113.998 49.9181 114.107 47.1264 115.742 47.2812C116.482 47.35 116.282 50.3767 115.346 53.7589Z" fill="#F0BA92"/>
<g opacity="0.6">
<path opacity="0.6" d="M114.09 52.3773C113.235 55.7767 112.753 59.7378 112.03 59.5429C112.03 59.5429 112.747 56.476 113.424 53.0366C114.205 49.0239 114.124 47.6653 115.759 47.8143C115.777 47.7914 115.128 48.2271 114.09 52.3773Z" fill="#D88D64"/>
</g>
<path d="M86.6721 53.7589C87.613 57.1353 89.1678 59.7435 89.8849 59.5429C89.8849 59.5429 89.1219 56.7569 88.6686 53.8105C88.0433 49.7978 87.9113 47.1035 86.2762 47.2583C85.5361 47.35 85.7369 50.3767 86.6721 53.7589Z" fill="#F0BA92"/>
<g opacity="0.6">
<path opacity="0.6" d="M87.4236 51.9933C88.2784 55.3926 89.1447 59.7493 89.8848 59.5486C89.8848 59.5486 89.1218 56.0518 88.4448 52.6066C87.6645 48.5939 87.7907 47.671 86.1499 47.8258C86.1556 47.8258 86.3909 47.8602 87.4236 51.9933Z" fill="#D88D64"/>
</g>
<path d="M109.988 73.3868C109.988 73.3868 108.748 76.6485 100.952 76.6485C93.1549 76.6485 92.0361 73.5874 92.0361 73.5874V63.676H109.861L109.988 73.3868Z" fill="#F0BA92"/>
<g opacity="0.6">
<path opacity="0.6" d="M109.873 66.1925C108.267 69.5518 101.967 72.1887 100.946 72.1887C99.9247 72.1887 94.5834 70.1479 92.0361 66.2499V61.0907H109.861L109.873 66.1925Z" fill="#D88D64"/>
</g>
<path d="M112.03 59.5257C109.059 69.2709 100.946 69.4428 100.946 69.4428C100.946 69.4428 92.3807 69.4428 89.822 59.2907C88.1295 52.6066 84.0848 42.3742 88.9384 34.7902C91.698 30.4966 111.749 28.7826 114.113 34.7902C116.477 40.7978 113.775 53.8047 112.03 59.5257Z" fill="#FFCCA9"/>
<path d="M105.307 59.1646C105.639 59.4397 104.624 62.9652 100.958 63.0053C97.8425 63.034 96.282 59.841 96.5631 59.3595C96.913 58.7862 98.1523 59.1703 100.832 59.1703C103.511 59.1703 104.951 58.8665 105.307 59.1646Z" fill="white"/>
<path d="M100.912 63.1888C100.059 63.1657 99.228 62.9209 98.4996 62.4786C97.7711 62.0362 97.1707 61.4116 96.7578 60.6665C96.4767 60.1792 96.2357 59.5601 96.4078 59.2678C96.689 58.7862 97.3545 58.8264 98.565 58.9066C99.1674 58.941 99.9132 58.9869 100.831 58.9869C101.921 58.9869 102.799 58.941 103.505 58.8951C104.606 58.8378 105.163 58.8034 105.427 59.027C105.679 59.2334 105.484 59.8754 105.387 60.1391C105.059 61.0454 104.456 61.8267 103.661 62.3736C102.867 62.9204 101.922 63.2054 100.957 63.1888H100.912ZM97.5381 59.2219C97.102 59.2219 96.8267 59.2735 96.7176 59.4569C96.7433 59.9012 96.9079 60.3263 97.1881 60.6722C97.5824 61.3102 98.129 61.8405 98.7788 62.2157C99.4286 62.5908 100.161 62.7991 100.912 62.8219H100.952C101.685 62.8354 102.41 62.6601 103.056 62.3127C103.702 61.9653 104.248 61.4576 104.641 60.8384C104.969 60.3871 105.157 59.8485 105.18 59.2907C104.633 59.1878 104.072 59.1781 103.522 59.262C102.816 59.3021 101.933 59.3537 100.831 59.3537C99.9018 59.3537 99.1502 59.3079 98.5363 59.2678C98.1462 59.2563 97.8135 59.2219 97.5381 59.2219V59.2219Z" fill="#D3976E"/>
<path d="M100.963 56.1837C100.615 55.9634 100.354 55.6295 100.224 55.2387C100.095 54.8479 100.104 54.4242 100.252 54.0398C100.486 53.0882 100.613 52.1133 100.631 51.1334H100.998C100.977 52.1485 100.842 53.158 100.596 54.143C100.479 54.4518 100.472 54.7916 100.576 55.105C100.681 55.4183 100.891 55.686 101.17 55.8627L100.963 56.1837Z" fill="#D88D64"/>
<path d="M115.037 128.9L111.675 129.41C107.383 129.783 105.794 126.475 102.008 126.968C98.2211 127.461 98.6686 128.957 98.6686 128.957C96.1557 129.026 96.8155 132.505 96.8155 132.505C95.6279 134.271 96.8614 136.312 96.8614 136.312C96.0008 137.533 97.1482 139.384 97.1482 139.384C97.4753 141.396 99.9193 143.059 102.547 143.334H102.811H103.092H103.39C103.534 143.334 103.671 143.334 103.809 143.334H103.861L104.211 143.305C107.383 142.87 116.127 139.339 116.127 139.339C116.259 132.54 115.037 128.9 115.037 128.9Z" fill="#FFCCA9"/>
<path d="M98.6683 128.957C98.6683 128.957 100.843 129.387 102.019 129.467C103.548 129.619 105.068 129.849 106.574 130.155C106.574 130.155 103.04 129.863 101.984 129.794C101.204 129.765 98.3356 128.991 98.6683 128.957Z" fill="#D88D64"/>
<path d="M99.3454 133.468C99.3454 133.468 97.7505 132.815 97.28 132.179C97.0128 131.786 96.8418 131.337 96.7809 130.866C96.7076 131.411 96.7192 131.964 96.8153 132.505L99.3454 133.468Z" fill="#D88D64"/>
<path d="M99.4086 137.258C98.6657 136.937 97.9517 136.553 97.2744 136.111C96.8493 135.746 96.5252 135.279 96.3335 134.753C96.4037 135.305 96.5894 135.836 96.8785 136.312L99.4086 137.258Z" fill="#D88D64"/>
<path d="M99.7124 140.342C98.9696 140.021 98.2556 139.638 97.5782 139.195C97.1356 138.792 96.7921 138.291 96.5742 137.733C96.6614 138.321 96.8684 138.885 97.1824 139.39L99.7124 140.342Z" fill="#D88D64"/>
<path d="M98.984 128.046C98.984 128.046 98.5996 128.934 99.2938 129.055L99.4029 129.209L98.6685 128.934C98.655 128.772 98.6762 128.609 98.7306 128.456C98.785 128.303 98.8714 128.163 98.984 128.046Z" fill="#D88D64"/>
<g opacity="0.1">
<path opacity="0.1" d="M86.9476 87.6835L87.1025 77.9383L86.2878 78.0988L86.1329 87.7293C81.721 88.486 80.8375 96.328 80.6826 106.297V106.87C80.6826 108.905 81.7727 109.415 83.1553 109.633C83.6611 109.704 84.1708 109.744 84.6814 109.753C84.7551 109.931 84.8886 110.078 85.0589 110.167C85.2292 110.257 85.4255 110.285 85.6139 110.245C85.8024 110.206 85.9711 110.102 86.091 109.951C86.2109 109.801 86.2745 109.613 86.2706 109.421V108.739C86.2654 108.533 86.1838 108.337 86.0418 108.189C85.8997 108.041 85.7074 107.95 85.5024 107.936C85.2973 107.922 85.0943 107.984 84.933 108.112C84.7716 108.239 84.6635 108.422 84.6298 108.624C83.5283 108.573 82.1628 108.332 81.721 107.518C81.2793 106.704 81.5432 105.03 81.5776 103.889C81.8702 95.1586 82.8226 88.5261 86.873 88.5261C90.9234 88.5261 92.8282 95.1414 93.0978 103.849C93.138 104.944 93.3273 106.549 92.92 107.363C92.5126 108.177 91.5488 108.429 90.5563 108.561C90.4959 108.364 90.3646 108.197 90.1879 108.091C90.0111 107.986 89.8015 107.949 89.5994 107.989C89.3974 108.029 89.2174 108.143 89.0942 108.308C88.9711 108.472 88.9135 108.677 88.9327 108.882L89.013 109.553C89.0354 109.745 89.124 109.923 89.2636 110.056C89.4032 110.19 89.5851 110.271 89.7779 110.285C89.9707 110.299 90.1625 110.246 90.3203 110.134C90.478 110.023 90.5919 109.86 90.6423 109.673C92.2315 109.45 94.033 108.75 93.9756 106.669V105.85C93.9731 105.838 93.9731 105.827 93.9756 105.815C93.7748 95.6057 91.784 87.7809 86.9476 87.6835Z" fill="#0E3368"/>
<path opacity="0.1" d="M126.459 95.5427C125.639 76.2644 116.706 71.8849 116.299 71.7072C116.299 71.7072 116.821 72.1199 119.064 75.2211C121.399 78.4542 125.031 84.2841 125.518 95.5713C124.521 95.6911 123.607 96.1869 122.963 96.9574C122.32 97.7279 121.994 98.7149 122.055 99.7168C122.115 100.719 122.555 101.66 123.286 102.348C124.018 103.036 124.984 103.42 125.989 103.42C126.993 103.42 127.96 103.036 128.691 102.348C129.423 101.66 129.863 100.719 129.923 99.7168C129.983 98.7149 129.658 97.7279 129.014 96.9574C128.371 96.1869 127.457 95.6911 126.459 95.5713V95.5427Z" fill="#0E3368"/>
<path opacity="0.1" d="M131.629 139.768L131.462 150.454L101.721 151.589L101.675 155.344L133.499 153.996V139.304L131.629 139.768Z" fill="#0E3368"/>
</g>
<path d="M92.8281 104.806C92.6273 94.5337 91.107 86.7376 86.1788 86.7376C81.2506 86.7376 79.7187 94.7974 79.5581 105.299V105.873C79.5581 107.913 80.6424 108.418 82.0308 108.636C82.5363 108.71 83.0461 108.75 83.5569 108.756C83.6306 108.934 83.7641 109.08 83.9344 109.17C84.1047 109.26 84.301 109.287 84.4894 109.248C84.6779 109.208 84.8466 109.104 84.9665 108.954C85.0864 108.803 85.1499 108.616 85.1461 108.423V107.741C85.1461 107.521 85.0584 107.309 84.9024 107.154C84.7464 106.998 84.5348 106.91 84.3142 106.91C84.1145 106.911 83.9221 106.986 83.7732 107.119C83.6243 107.252 83.529 107.434 83.5053 107.632C82.398 107.575 81.0383 107.34 80.5908 106.52C80.1433 105.701 80.4129 104.032 80.4531 102.892C80.7457 94.1611 82.1742 87.5975 86.2189 87.5975C90.2636 87.5975 91.6864 94.1439 91.9561 102.857C91.9905 103.952 92.1798 105.551 91.7725 106.371C91.3652 107.191 90.4071 107.432 89.4145 107.569C89.36 107.366 89.2305 107.191 89.0521 107.08C88.8736 106.968 88.6595 106.929 88.4529 106.969C88.2462 107.008 88.0625 107.125 87.9386 107.295C87.8147 107.465 87.7599 107.676 87.7852 107.885L87.8712 108.561C87.8946 108.753 87.9839 108.93 88.1239 109.063C88.2639 109.196 88.4459 109.276 88.6386 109.29C88.8313 109.303 89.0227 109.249 89.18 109.137C89.3373 109.025 89.4506 108.862 89.5006 108.676C91.0898 108.458 92.8855 107.753 92.8281 105.672V104.852C92.8326 104.837 92.8326 104.821 92.8281 104.806V104.806Z" fill="#383F47"/>
<path d="M86.2878 87.1618H85.4731V78.265L86.2878 78.1045V87.1618Z" fill="#383F47"/>
<path d="M123.465 93.2898C123.04 81.7389 119.351 75.823 116.987 72.5498C114.744 69.4428 114.222 69.0301 114.222 69.0301C114.607 69.2135 123.683 73.616 124.4 93.2554L123.465 93.2898Z" fill="#383F47"/>
<path d="M123.987 93.5076C123.355 81.4981 120.487 76.2415 118.123 72.9683C115.874 69.8613 114.21 69.0186 114.21 69.0186C114.595 69.1963 123.682 74.0001 124.4 93.6108L123.987 93.5076Z" fill="#1A2026"/>
<path d="M127.974 96.821C127.975 97.6069 127.743 98.3755 127.307 99.0296C126.871 99.6836 126.25 100.194 125.524 100.495C124.797 100.797 123.998 100.876 123.226 100.724C122.455 100.571 121.746 100.193 121.189 99.6378C120.632 99.0824 120.253 98.3746 120.099 97.6038C119.945 96.8331 120.024 96.034 120.325 95.3078C120.625 94.5816 121.135 93.9608 121.789 93.524C122.443 93.0873 123.212 92.8541 123.998 92.8541C125.052 92.8541 126.062 93.2719 126.808 94.0156C127.553 94.7594 127.973 95.7684 127.974 96.821V96.821Z" fill="#BCBCBC"/>
<path d="M123.998 100.908C123.189 100.908 122.398 100.668 121.725 100.219C121.052 99.7696 120.528 99.1309 120.219 98.3838C119.909 97.6366 119.828 96.8145 119.987 96.0215C120.145 95.2285 120.535 94.5002 121.108 93.9288C121.681 93.3574 122.41 92.9686 123.204 92.8116C123.998 92.6545 124.82 92.7363 125.568 93.0465C126.315 93.3567 126.954 93.8815 127.402 94.5544C127.851 95.2273 128.09 96.0181 128.089 96.8267C128.087 97.9097 127.656 98.9478 126.889 99.7131C126.122 100.478 125.082 100.908 123.998 100.908V100.908ZM123.998 92.9688C123.235 92.9688 122.488 93.195 121.853 93.6189C121.218 94.0429 120.723 94.6454 120.431 95.3503C120.139 96.0553 120.062 96.831 120.211 97.5793C120.36 98.3277 120.728 99.0151 121.268 99.5547C121.808 100.094 122.496 100.462 123.245 100.611C123.994 100.759 124.77 100.683 125.476 100.391C126.181 100.099 126.784 99.6045 127.209 98.9701C127.633 98.3356 127.859 97.5897 127.859 96.8267C127.858 95.804 127.451 94.8236 126.727 94.1004C126.003 93.3772 125.022 92.9703 123.998 92.9688V92.9688Z" fill="#444444"/>
<g opacity="0.3">
<path opacity="0.3" d="M125.972 100.415L124.956 98.3057L125.662 96.3624L127.853 95.428C127.853 95.428 129.138 98.2369 125.96 100.415H125.972Z" fill="white"/>
</g>
<path d="M125.783 97.0904C125.766 97.4402 125.646 97.7774 125.439 98.0601C125.233 98.3428 124.947 98.5586 124.619 98.6807C124.29 98.8028 123.933 98.8259 123.591 98.747C123.25 98.6681 122.939 98.4908 122.698 98.237C122.456 97.9832 122.294 97.6641 122.233 97.3194C122.171 96.9746 122.212 96.6194 122.35 96.2976C122.489 95.9759 122.719 95.7019 123.012 95.5096C123.305 95.3173 123.648 95.2152 123.998 95.2159C124.483 95.2294 124.943 95.4341 125.277 95.7854C125.612 96.1366 125.793 96.6058 125.783 97.0904Z" fill="#635B53"/>
<g opacity="0.4">
<path opacity="0.4" d="M123.373 92.7108L123.591 95.1242L122.254 96.7006L119.873 96.821C119.873 96.821 119.638 93.6624 123.373 92.7108V92.7108Z" fill="white"/>
</g>
<path d="M125.588 96.821C125.589 97.1353 125.496 97.4428 125.323 97.7047C125.149 97.9666 124.901 98.171 124.611 98.2921C124.32 98.4131 124.001 98.4454 123.692 98.3848C123.383 98.3242 123.1 98.1734 122.877 97.9515C122.654 97.7297 122.502 97.4468 122.44 97.1386C122.378 96.8304 122.409 96.5109 122.53 96.2204C122.65 95.9299 122.853 95.6816 123.115 95.5068C123.376 95.3321 123.684 95.2388 123.998 95.2388C124.419 95.2388 124.822 95.4053 125.12 95.7019C125.418 95.9984 125.586 96.4008 125.588 96.821V96.821Z" fill="#D3D3D3"/>
<path d="M123.998 98.5235C123.658 98.5235 123.325 98.4226 123.042 98.2337C122.759 98.0447 122.538 97.7761 122.408 97.4619C122.278 97.1477 122.244 96.8019 122.31 96.4683C122.376 96.1347 122.54 95.8282 122.781 95.5877C123.022 95.3472 123.328 95.1834 123.662 95.1171C123.996 95.0507 124.342 95.0848 124.657 95.215C124.971 95.3451 125.24 95.5655 125.429 95.8483C125.618 96.1311 125.719 96.4636 125.719 96.8038C125.719 97.2599 125.538 97.6973 125.215 98.0198C124.892 98.3423 124.454 98.5235 123.998 98.5235ZM123.998 95.3535C123.706 95.3535 123.421 95.4399 123.179 95.6018C122.936 95.7636 122.747 95.9937 122.636 96.2629C122.524 96.5321 122.495 96.8283 122.552 97.1141C122.609 97.3999 122.749 97.6624 122.955 97.8684C123.162 98.0745 123.424 98.2148 123.71 98.2716C123.996 98.3285 124.293 98.2993 124.562 98.1878C124.832 98.0763 125.062 97.8875 125.224 97.6452C125.386 97.4029 125.472 97.1181 125.472 96.8267C125.466 96.4394 125.309 96.07 125.033 95.7977C124.757 95.5255 124.386 95.3721 123.998 95.3707V95.3535Z" fill="#A8A6A0"/>
<path d="M124.618 97.0101C124.618 97.134 124.581 97.255 124.512 97.3579C124.443 97.4607 124.345 97.5408 124.231 97.5879C124.116 97.6351 123.99 97.6471 123.868 97.6225C123.747 97.5979 123.636 97.5379 123.548 97.4499C123.461 97.3619 123.402 97.2501 123.379 97.1285C123.355 97.0069 123.368 96.8811 123.416 96.767C123.465 96.653 123.546 96.5558 123.649 96.4878C123.753 96.4199 123.874 96.3842 123.998 96.3853C124.08 96.3853 124.161 96.4015 124.237 96.433C124.312 96.4644 124.381 96.5106 124.438 96.5687C124.496 96.6268 124.542 96.6957 124.572 96.7715C124.603 96.8472 124.619 96.9284 124.618 97.0101Z" fill="#BABABA"/>
<path d="M123.998 97.4458C124.343 97.4458 124.623 97.166 124.623 96.821C124.623 96.4759 124.343 96.1961 123.998 96.1961C123.653 96.1961 123.373 96.4759 123.373 96.821C123.373 97.166 123.653 97.4458 123.998 97.4458Z" fill="white"/>
<path d="M84.2052 107.248H84.0331C83.8905 107.248 83.7749 107.364 83.7749 107.506V108.595C83.7749 108.738 83.8905 108.853 84.0331 108.853H84.2052C84.3478 108.853 84.4634 108.738 84.4634 108.595V107.506C84.4634 107.364 84.3478 107.248 84.2052 107.248Z" fill="#AAA9A2"/>
<path d="M88.7233 107.23L88.5519 107.247C88.41 107.26 88.3058 107.386 88.3193 107.528L88.422 108.612C88.4355 108.754 88.5614 108.858 88.7034 108.845L88.8747 108.828C89.0167 108.815 89.1209 108.689 89.1074 108.547L89.0047 107.463C88.9912 107.321 88.8652 107.217 88.7233 107.23Z" fill="#AAA9A2"/>
<g opacity="0.4">
<path opacity="0.4" d="M123.591 95.4624C123.333 95.5372 123.103 95.6856 122.929 95.8893C122.755 96.093 122.644 96.3431 122.61 96.6089L123.505 96.6777L123.74 96.4426L123.591 95.4624Z" fill="white"/>
</g>
<g opacity="0.4">
<path opacity="0.4" d="M124.847 97.9904C125.063 97.8299 125.228 97.6099 125.321 97.3574C125.413 97.1049 125.43 96.8307 125.369 96.5687L124.509 96.8152L124.371 97.119L124.847 97.9904Z" fill="white"/>
</g>
<path d="M88.0204 52.7442C88.0204 52.7442 86.2993 45.957 86.0009 42.529C85.7026 39.101 85.3354 34.5036 89.2023 32.9271C93.0691 31.3507 91.8815 36.1488 91.8815 36.1488C91.8815 36.1488 88.8236 38.201 88.2097 43.343C87.877 46.1404 88.0204 52.7442 88.0204 52.7442Z" fill="#2A445D"/>
<path d="M113.723 52.641C113.723 52.641 115.622 45.957 115.931 42.529C116.241 39.101 116.597 34.5036 112.73 32.9271C108.863 31.3507 110.051 36.1488 110.051 36.1488C110.051 36.1488 113.109 38.201 113.723 43.343C114.055 46.1404 113.723 52.641 113.723 52.641Z" fill="#2A445D"/>
<path d="M110.562 37.794C110.562 37.794 105.852 38.5449 102.696 37.0602C101.772 36.6246 97.2859 38.5335 95.2378 38.1494C94.0174 37.9237 92.8653 37.4207 91.8705 36.6792C90.8757 35.9377 90.0648 34.9776 89.5006 33.873C89.2711 32.9042 88.3532 31.5284 91.1816 29.3902C95.1288 26.4323 99.9996 27.1489 100.814 26.2833C101.194 25.8132 101.691 25.4512 102.255 25.2339C102.819 25.0165 103.43 24.9514 104.027 25.045C108.255 25.4692 108.462 27.9514 110.843 28.324C113.935 28.8055 114.979 30.0437 115.18 32.652C115.53 37.5934 110.562 37.794 110.562 37.794Z" fill="#2A445D"/>
<path d="M101.595 25.624C101.595 25.624 100.287 26.5813 96.9418 30.445C93.597 34.3087 91.8816 34.0736 91.5029 34.1424C91.5029 34.1424 94.3715 34.6412 97.4179 30.6456C100.464 26.6501 101.595 25.624 101.595 25.624Z" fill="#1F384C"/>
<path d="M106.821 37.6679C106.821 37.6679 112.375 38.3214 114.796 35.4208C114.796 35.4208 114.285 38.4532 106.948 37.7138L106.821 37.6679Z" fill="#1F384C"/>
<path d="M97.6819 37.7482C91.1358 38.6596 89.2597 33.2654 89.2884 33.3628C89.6869 34.6145 90.4093 35.7387 91.3825 36.6215C92.3558 37.5044 93.5453 38.1145 94.8305 38.3902C95.393 38.5437 95.9697 38.6398 96.5517 38.6768C96.8615 38.7055 97.0508 38.7055 97.0508 38.7055C103.31 38.7571 108.376 32.1476 108.376 32.1476C104.125 35.7934 100.355 37.2208 97.6819 37.7482Z" fill="#1F384C"/>
<path d="M97.0103 52.8302L99.1731 50.6691V52.8302H97.0103Z" fill="white"/>
<path d="M94.2278 52.8302L93.0918 51.6952V48.9149L95.2547 46.7538H98.0372L99.1732 47.8888V50.6691L97.0103 52.8302H94.2278Z" fill="white"/>
<path d="M95.2547 46.7538L93.0918 48.915V46.7538H95.2547Z" fill="white"/>
<path d="M106.884 53.0194L109.047 50.8583V53.0194H106.884Z" fill="white"/>
<path d="M104.102 53.0194L102.966 51.8901V49.1099L105.129 46.9487H107.911L109.047 48.078V50.8583L106.884 53.0194H104.102Z" fill="white"/>
<path d="M105.129 46.9487L102.966 49.1099V46.9487H105.129Z" fill="white"/>
<path d="M108.852 45.9284C108.076 45.3711 107.113 45.1368 106.167 45.2749C106.069 45.2943 105.968 45.2881 105.874 45.2567C105.779 45.2253 105.694 45.1699 105.628 45.0958C105.561 45.0218 105.515 44.9317 105.494 44.8344C105.473 44.7372 105.477 44.6361 105.507 44.5411V44.5411C105.528 44.4412 105.575 44.3487 105.644 44.2732C105.712 44.1976 105.8 44.1417 105.897 44.1112C106.538 43.8777 107.233 43.8357 107.898 43.9905C108.562 44.1452 109.167 44.4899 109.638 44.9825C109.711 45.0566 109.762 45.1491 109.786 45.2501C109.811 45.351 109.807 45.4567 109.776 45.5557V45.5959C109.756 45.6926 109.712 45.7826 109.648 45.8573C109.583 45.932 109.501 45.9889 109.408 46.0223C109.315 46.0557 109.215 46.0646 109.118 46.0482C109.02 46.0317 108.929 45.9905 108.852 45.9284Z" fill="#2A445D"/>
<path d="M106.007 50.8411C106.393 50.8411 106.706 50.4432 106.706 49.9525C106.706 49.4618 106.393 49.064 106.007 49.064C105.62 49.064 105.307 49.4618 105.307 49.9525C105.307 50.4432 105.62 50.8411 106.007 50.8411Z" fill="#210601"/>
<path d="M96.1325 48.9895C95.9469 48.9441 95.7518 48.9578 95.5744 49.0285C95.397 49.0992 95.246 49.2235 95.1426 49.384C95.0392 49.5445 94.9886 49.7333 94.9976 49.9239C95.0067 50.1146 95.0751 50.2977 95.1932 50.4477C95.3114 50.5977 95.4734 50.7071 95.6568 50.7607C95.8401 50.8143 96.0356 50.8094 96.2161 50.7467C96.3965 50.684 96.5529 50.5666 96.6634 50.4109C96.7738 50.2552 96.833 50.0689 96.8324 49.878C96.8552 49.6679 96.7947 49.4572 96.6639 49.2911C96.533 49.125 96.3423 49.0167 96.1325 48.9895V48.9895Z" fill="#210601"/>
<path d="M108.812 49.0468C108.619 48.4023 108.211 47.8433 107.656 47.4631C107.1 47.0829 106.431 46.9043 105.76 46.9573C105.089 47.0103 104.456 47.2916 103.968 47.7542C103.479 48.2168 103.164 48.8329 103.075 49.4996V49.4996C102.825 49.213 102.52 48.9804 102.177 48.8161C101.834 48.6518 101.461 48.5593 101.081 48.5443C100.701 48.5293 100.322 48.592 99.9677 48.7287C99.6129 48.8654 99.2899 49.0731 99.0185 49.3391C98.8997 48.6933 98.5685 48.1057 98.0773 47.6695C97.5861 47.2333 96.9632 46.9735 96.3074 46.9313C95.6517 46.8892 95.0006 47.0671 94.4575 47.4368C93.9145 47.8066 93.5106 48.347 93.31 48.9723C88.3933 47.2525 87.1827 47.006 86.8557 47.0634C86.7582 47.0634 86.6779 47.2296 86.6606 47.3099L86.9131 47.413C86.9285 47.3906 86.9458 47.3696 86.9647 47.35C87.395 47.2984 90.4529 48.2901 93.2182 49.2703C93.1771 49.4703 93.1559 49.6739 93.1551 49.878C93.1522 50.5296 93.3656 51.1637 93.7618 51.6812C94.158 52.1987 94.7148 52.5704 95.3449 52.7381C95.975 52.9059 96.643 52.8602 97.2444 52.6082C97.8458 52.3562 98.3466 51.9121 98.6685 51.3455C98.7561 51.3309 98.8411 51.3039 98.9209 51.2652C99.0065 51.2211 99.0841 51.163 99.1504 51.0933C99.2756 50.9518 99.3555 50.7761 99.3799 50.5888C99.4457 50.2502 99.3844 49.8992 99.2078 49.6028C99.4473 49.3551 99.7362 49.1603 100.056 49.0312C100.375 48.9021 100.719 48.8416 101.063 48.8534C101.408 48.8653 101.746 48.9494 102.056 49.1002C102.366 49.2511 102.641 49.4652 102.862 49.7289C102.716 50.017 102.667 50.3452 102.725 50.6633C102.75 50.8485 102.83 51.0219 102.954 51.1621C103.019 51.234 103.097 51.2925 103.184 51.334C103.262 51.3771 103.348 51.4062 103.436 51.42C103.758 51.9867 104.259 52.4307 104.86 52.6827C105.462 52.9347 106.13 52.9804 106.76 52.8127C107.39 52.6449 107.947 52.2732 108.343 51.7557C108.739 51.2382 108.952 50.6041 108.95 49.9525C108.949 49.7484 108.928 49.5448 108.886 49.3449C111.698 48.3474 114.75 47.3328 115.1 47.4188L115.415 47.2869C115.335 47.0806 115.203 46.7825 108.812 49.0468ZM96.1327 52.5264C95.6082 52.5275 95.0952 52.3731 94.6586 52.0828C94.2219 51.7925 93.8813 51.3793 93.6798 50.8955C93.4783 50.4116 93.425 49.8789 93.5266 49.3648C93.6282 48.8507 93.8802 48.3783 94.2507 48.0073C94.6212 47.6364 95.0934 47.3836 95.6077 47.2809C96.1221 47.1783 96.6553 47.2304 97.14 47.4307C97.6246 47.6309 98.0389 47.9704 98.3304 48.406C98.6219 48.8417 98.7775 49.3539 98.7775 49.878C98.7775 50.5794 98.4991 51.2522 98.0032 51.7487C97.5074 52.2452 96.8347 52.5249 96.1327 52.5264V52.5264ZM99.0816 50.7379C99.0522 50.8051 99.0092 50.8656 98.9554 50.9156L98.8808 50.9557C99.004 50.641 99.072 50.3075 99.0816 49.9697C99.111 50.0236 99.1323 50.0815 99.1447 50.1417C99.1729 50.3426 99.1512 50.5473 99.0816 50.7379V50.7379ZM103.184 50.9844C103.132 50.9345 103.09 50.8764 103.057 50.8124C102.992 50.6288 102.971 50.4325 102.994 50.2391C103.006 50.1788 103.027 50.1207 103.057 50.0672C103.068 50.4048 103.136 50.7382 103.258 51.0531L103.184 50.9844ZM106.006 52.5952C105.483 52.594 104.973 52.4381 104.539 52.147C104.104 51.8559 103.766 51.4428 103.567 50.9598C103.368 50.4769 103.316 49.9457 103.419 49.4334C103.521 48.9212 103.774 48.4509 104.144 48.0819C104.514 47.7128 104.985 47.4617 105.498 47.3602C106.011 47.2587 106.543 47.3114 107.026 47.5116C107.508 47.7117 107.921 48.0505 108.212 48.4849C108.502 48.9194 108.657 49.4301 108.657 49.9525C108.655 50.6509 108.378 51.3205 107.885 51.8155C107.391 52.3104 106.723 52.5906 106.024 52.5952H106.006Z" fill="#302420"/>
<path d="M93.287 45.8538C94.0634 45.2966 95.0261 45.0623 95.972 45.2003C96.0691 45.2194 96.1694 45.213 96.2633 45.1819C96.3571 45.1507 96.4414 45.0958 96.5078 45.0226C96.5742 44.9493 96.6205 44.8602 96.6422 44.7637C96.6639 44.6673 96.6603 44.5669 96.6318 44.4723V44.4723C96.6118 44.3714 96.5651 44.2777 96.4965 44.201C96.4278 44.1244 96.3398 44.0676 96.2416 44.0366C95.6002 43.8046 94.905 43.7639 94.2409 43.9197C93.5767 44.0754 92.9722 44.4208 92.501 44.9137C92.4282 44.9878 92.377 45.0803 92.3528 45.1813C92.3285 45.2823 92.3322 45.3879 92.3633 45.487V45.4984C92.3795 45.5971 92.4213 45.6898 92.4844 45.7673C92.5476 45.8449 92.6299 45.9046 92.7233 45.9405C92.8166 45.9764 92.9178 45.9873 93.0167 45.9721C93.1156 45.9569 93.2088 45.9161 93.287 45.8538Z" fill="#2A445D"/>
<path d="M80.3328 105.185C80.3328 105.185 79.564 89.5064 84.8652 87.4656C85.3811 87.2764 85.9321 87.2014 86.4799 87.2459C87.0277 87.2905 87.5593 87.4535 88.0378 87.7236C90.8433 89.2026 91.5432 94.5681 91.7612 97.0044C92.0366 100.163 92.4669 104.755 91.9104 106.039C91.9104 106.039 92.1055 98.7471 90.8835 93.4274C89.6614 88.1077 87.3551 87.5172 85.8806 87.6032C84.4062 87.6892 82.6965 89.323 81.7384 92.5618C80.7803 95.8006 80.3328 105.185 80.3328 105.185Z" fill="#1A2026"/>
<path d="M79.5698 106.343C79.7012 106.754 79.9323 107.126 80.2427 107.426C80.553 107.726 80.9329 107.945 81.3483 108.062C81.7135 108.175 82.1011 108.194 82.4758 108.119C82.8505 108.044 83.2005 107.877 83.494 107.632C83.4372 108.014 83.4547 108.404 83.5457 108.779C83.5457 108.779 79.696 109.163 79.5698 106.343Z" fill="#1A2026"/>
<path d="M92.8284 105.271C92.852 105.684 92.7753 106.097 92.6047 106.474C92.469 106.783 92.2688 107.06 92.0175 107.285C91.7662 107.511 91.4695 107.68 91.1474 107.781C89.868 108.458 89.4263 107.558 89.4263 107.558C89.5091 107.92 89.538 108.293 89.5123 108.664C89.5123 108.664 93.1267 108.555 92.8284 105.271Z" fill="#1A2026"/>
<path d="M85.4731 78.2651L86.2878 78.1046L86.2419 78.523L85.4731 78.6721V78.2651Z" fill="#1A2026"/>
</g>
<defs>
<clipPath id="clip0_6_979">
<rect width="215" height="184" fill="white" transform="translate(0.5)"/>
</clipPath>
</defs>
</svg>
