<svg width="199" height="184" viewBox="0 0 199 184" fill="none" xmlns="http://www.w3.org/2000/svg">
<g clip-path="url(#clip0_724_2410)">
<path d="M17.0767 181.394C17.0767 181.394 3.67218 165.045 10.2979 133.465C14.4655 113.601 31.9706 103.762 55.4366 104.701C63.503 105.024 76.6265 95.4001 95.4842 83.5783C135.82 58.2899 194.167 69.0299 180.203 125.912C173.445 153.437 201.46 153.879 187.536 181.394H17.0767Z" fill="#E0E8FF"/>
<path d="M170.233 167.467L169.913 165.141L169.593 162.814C169.512 162.242 169.207 161.725 168.743 161.376C168.279 161.026 167.694 160.873 167.117 160.95C167.051 160.958 166.986 160.97 166.922 160.986C167.136 160.68 167.266 160.325 167.3 159.955C167.513 160.46 167.91 160.867 168.411 161.095C168.913 161.324 169.483 161.357 170.008 161.187C170.533 161.018 170.975 160.659 171.245 160.182C171.515 159.704 171.594 159.144 171.466 158.611L170.915 156.329L170.364 154.044C170.228 153.481 169.872 152.996 169.375 152.694C168.878 152.391 168.28 152.297 167.713 152.432C167.146 152.566 166.656 152.919 166.351 153.411C166.046 153.904 165.951 154.497 166.087 155.059L166.917 158.499C166.79 158.316 166.635 158.154 166.459 158.017C166.093 157.74 165.649 157.585 165.189 157.573C165.404 157.297 165.55 156.973 165.613 156.63C165.516 155.374 165.218 154.141 164.732 152.977L161.08 149.985C160.649 149.63 160.097 149.452 159.538 149.486C158.978 149.521 158.453 149.767 158.071 150.172C157.688 150.578 157.476 151.114 157.478 151.669C157.48 152.225 157.697 152.759 158.083 153.161C157.885 153.16 157.688 153.185 157.497 153.236L155.213 153.856L152.928 154.476C152.55 154.579 152.206 154.782 151.933 155.061C151.659 155.341 151.467 155.689 151.374 156.067L151.134 155.499L150.216 153.339C149.991 152.805 149.562 152.382 149.023 152.163C148.483 151.943 147.878 151.945 147.34 152.168C146.802 152.391 146.375 152.816 146.154 153.351C145.932 153.886 145.934 154.486 146.159 155.019L147.076 157.179L147.661 158.568C147.269 158.722 146.93 158.984 146.684 159.323C146.437 159.662 146.295 160.064 146.272 160.481L146.158 162.827L146.043 165.172C146.015 165.749 146.219 166.313 146.609 166.742C147 167.17 147.546 167.428 148.128 167.459C148.379 167.47 148.629 167.439 148.87 167.367C148.639 167.824 148.577 168.347 148.694 168.845C148.275 169.083 147.947 169.452 147.763 169.895L146.858 172.064L145.953 174.235C145.755 174.707 145.731 175.234 145.886 175.723C146.041 176.211 146.365 176.63 146.8 176.905C147.235 177.181 147.755 177.295 148.267 177.229C148.779 177.162 149.251 176.919 149.6 176.541C149.75 176.892 149.99 177.197 150.297 177.427C150.603 177.657 150.965 177.803 151.347 177.851C151.728 177.898 152.115 177.846 152.47 177.699C152.824 177.552 153.133 177.315 153.366 177.012L154.806 175.147L156.246 173.283C156.269 173.074 156.339 172.873 156.45 172.694C156.561 172.515 156.71 172.362 156.888 172.247C157.066 172.132 157.267 172.058 157.477 172.029C157.687 172 157.901 172.018 158.103 172.081L158.48 171.823L157.958 172.5L156.518 174.364C156.163 174.823 156.007 175.403 156.084 175.976C156.161 176.549 156.464 177.068 156.927 177.42C157.39 177.771 157.975 177.926 158.553 177.85C159.132 177.774 159.656 177.473 160.01 177.014L161.45 175.15L162.89 173.284C162.908 173.26 162.924 173.235 162.941 173.21C163.056 173.394 163.198 173.56 163.362 173.702L162.85 174.366C162.495 174.825 162.339 175.405 162.416 175.978C162.493 176.551 162.796 177.07 163.26 177.422C163.723 177.773 164.308 177.927 164.886 177.851C165.464 177.775 165.987 177.474 166.342 177.015L169.221 173.286C169.429 173.02 169.571 172.708 169.637 172.378C169.702 172.047 169.689 171.706 169.598 171.381C169.508 171.056 169.342 170.757 169.114 170.506C168.887 170.256 168.603 170.062 168.287 169.938C168.313 169.938 168.341 169.938 168.367 169.932C168.943 169.849 169.463 169.543 169.813 169.081C170.162 168.619 170.313 168.039 170.233 167.467ZM150.419 165.388L150.46 164.592C150.654 164.925 150.938 165.198 151.279 165.38L150.271 166.069C150.358 165.851 150.408 165.621 150.419 165.388ZM165.236 163.403L165.666 166.531C165.461 166.119 165.13 165.781 164.721 165.566C164.311 165.351 163.843 165.269 163.384 165.332C163.615 165.194 163.818 165.014 163.983 164.801L165.219 163.201C165.22 163.268 165.225 163.336 165.234 163.403H165.236ZM160.235 154.953L160.789 155.408L160.215 155.798C160.278 155.52 160.284 155.233 160.235 154.953ZM160.713 161.864C160.658 161.53 160.524 161.213 160.323 160.939C160.491 160.878 160.65 160.796 160.797 160.696L162.53 159.512L160.713 161.864ZM162.151 165.943C161.923 165.754 161.658 165.613 161.373 165.528C161.089 165.442 160.79 165.415 160.494 165.447L160.54 164.86C160.779 165.15 161.089 165.374 161.441 165.509C161.793 165.644 162.175 165.686 162.548 165.631C162.404 165.719 162.271 165.824 162.151 165.944V165.943ZM157.721 157.694C157.477 158.057 157.349 158.484 157.352 158.92C157.355 159.356 157.49 159.781 157.738 160.14C157.747 160.154 157.759 160.165 157.769 160.179C157.61 160.237 157.458 160.314 157.316 160.406C157.416 160.099 157.445 159.773 157.403 159.453C157.366 159.169 157.273 158.895 157.129 158.648C156.985 158.4 156.793 158.183 156.564 158.009H156.557L157.721 157.694ZM155.533 162.935L156.38 161.836C156.369 161.904 156.36 161.973 156.354 162.042L156.193 164.059C155.88 163.779 155.493 163.594 155.076 163.526L155.535 162.935H155.533ZM151.563 172.143L151.811 171.546C151.987 171.126 152.024 170.662 151.917 170.22C151.967 170.192 152.018 170.162 152.066 170.129L155.965 167.463C155.99 167.445 156.012 167.426 156.037 167.408C156.089 167.618 156.173 167.819 156.285 168.005L155.59 168.479C155.37 169.068 154.984 169.582 154.479 169.962C153.974 170.341 153.37 170.569 152.738 170.619L151.563 172.143ZM161.908 169.456L162.03 169.96C161.836 169.875 161.631 169.817 161.421 169.79L161.908 169.456ZM166.553 169.966L166.383 169.263L166.351 169.129C166.589 169.419 166.898 169.645 167.249 169.784C167.008 169.807 166.773 169.87 166.553 169.969V169.966ZM153.235 158.736L152.045 160.285L150.606 162.149C150.599 162.157 150.595 162.166 150.588 162.175L150.663 160.697C150.663 160.66 150.663 160.622 150.663 160.584C150.731 160.563 150.798 160.539 150.865 160.512C151.291 160.334 151.65 160.027 151.891 159.636C152.132 159.244 152.242 158.788 152.207 158.331C152.509 158.551 152.863 158.692 153.235 158.74V158.736Z" fill="#AFCDFB"/>
<path opacity="0.5" d="M167.674 179.997H155.608H149.226C148.032 179.993 146.889 179.521 146.045 178.684C145.202 177.846 144.727 176.713 144.724 175.529L144.737 131.332C144.741 130.149 145.216 129.016 146.061 128.179C146.905 127.343 148.049 126.872 149.242 126.869H154.902H167.69C168.884 126.873 170.027 127.345 170.871 128.182C171.715 129.019 172.19 130.153 172.192 131.336L172.18 175.533C172.176 176.716 171.7 177.85 170.856 178.686C170.011 179.522 168.868 179.994 167.674 179.997Z" fill="#C0D8FB"/>
<path opacity="0.5" d="M155.608 179.994H149.226C148.032 179.989 146.889 179.517 146.045 178.68C145.202 177.843 144.727 176.709 144.724 175.526L144.737 131.329C144.741 130.146 145.216 129.012 146.061 128.176C146.905 127.34 148.049 126.869 149.242 126.866H154.902C155.39 127.705 155.646 128.657 155.641 129.626L155.627 179.547C155.627 179.699 155.62 179.847 155.608 179.994Z" fill="#AFCDFB"/>
<path d="M171.897 128.955H154.761H145.035C144.92 128.955 144.806 128.932 144.7 128.889C144.593 128.845 144.497 128.781 144.416 128.7C144.334 128.62 144.27 128.524 144.226 128.419C144.182 128.313 144.16 128.2 144.16 128.086V123.924C144.161 123.694 144.253 123.474 144.417 123.311C144.582 123.149 144.804 123.057 145.036 123.056H154.747H171.896C172.128 123.057 172.35 123.148 172.514 123.311C172.678 123.474 172.771 123.695 172.771 123.925V128.089C172.769 128.318 172.676 128.537 172.513 128.7C172.349 128.862 172.128 128.953 171.897 128.955Z" fill="#F99746"/>
<path d="M154.761 128.949H145.035C144.92 128.949 144.806 128.927 144.7 128.883C144.593 128.839 144.497 128.775 144.416 128.695C144.334 128.614 144.27 128.518 144.226 128.413C144.182 128.308 144.16 128.195 144.16 128.081V123.918C144.161 123.688 144.253 123.468 144.417 123.305C144.582 123.143 144.804 123.051 145.036 123.051H154.747C154.979 123.052 155.2 123.144 155.364 123.306C155.528 123.469 155.62 123.689 155.621 123.918V128.082C155.62 128.309 155.53 128.527 155.369 128.689C155.208 128.851 154.99 128.945 154.761 128.949Z" fill="#EF7E29"/>
<path d="M156.857 10.6213H29.5986V180.099H156.857V10.6213Z" fill="#87C1BC"/>
<path d="M150.792 16.1144H37.061V172.496H150.792V16.1144Z" fill="white"/>
<path d="M70.7319 10.6213V16.3622C70.7316 17.1158 70.8811 17.8621 71.1717 18.5585C71.4624 19.2548 71.8886 19.8876 72.4259 20.4207C72.9633 20.9538 73.6013 21.3768 74.3036 21.6654C75.0058 21.9541 75.7586 22.1028 76.5188 22.1031H107.598C108.358 22.1028 109.111 21.9541 109.813 21.6654C110.515 21.3768 111.153 20.9538 111.691 20.4207C112.228 19.8876 112.654 19.2548 112.945 18.5585C113.235 17.8621 113.385 17.1158 113.385 16.3622V10.6213H70.7319Z" fill="#F99746"/>
<path d="M98.3535 165.388C96.5495 165.968 94.7891 166.27 93.4049 166.155C91.2959 165.981 90.1078 164.885 90.0608 163.07C90.0229 161.63 90.6261 160.369 91.8085 159.346C91.7971 159.248 91.7879 159.149 91.7799 159.05C91.703 158.035 91.9221 157.361 92.4312 157.045C93.2547 156.537 94.4783 157.232 94.5299 157.262L94.2559 157.726C93.9818 157.568 93.1675 157.22 92.7168 157.498C92.328 157.741 92.2822 158.408 92.3154 158.944C93.2776 158.254 94.5345 157.694 96.0667 157.281C97.2241 156.978 98.4066 156.777 99.6001 156.682C99.6042 156.571 99.6146 156.46 99.631 156.35C99.6677 156.101 99.7549 155.809 100.003 155.751C100.096 155.731 100.278 155.733 100.44 155.979C100.552 156.178 100.609 156.403 100.606 156.631C100.998 156.622 101.363 156.631 101.686 156.653L101.695 156.632C101.626 156.008 101.654 155.377 101.778 154.761C101.916 154.139 102.14 153.825 102.456 153.795C102.547 153.786 102.638 153.807 102.716 153.854C102.793 153.902 102.853 153.974 102.886 154.058C103.062 154.48 102.731 155.618 102.252 156.712C102.701 156.787 103.006 156.91 103.102 157.082C103.146 157.166 103.159 157.263 103.138 157.355C103.117 157.447 103.064 157.529 102.988 157.586C102.625 157.918 102.336 157.834 102.195 157.754C102.069 157.674 101.968 157.56 101.905 157.426C101.543 158.136 101.148 158.744 100.838 159.001C100.756 159.082 100.651 159.134 100.537 159.15C100.424 159.167 100.308 159.146 100.207 159.092C100.156 159.062 100.11 159.023 100.07 158.979C99.9507 159.269 99.8128 159.552 99.6574 159.825C99.0909 160.811 98.4521 161.319 97.811 161.289C97.5516 161.275 97.3064 161.167 97.1229 160.985C96.7916 161.707 96.3742 162.387 95.8798 163.011C95.4291 163.561 94.8545 163.763 94.2616 163.579C93.21 163.254 92.2592 161.747 91.9037 159.962C91.0057 160.832 90.5688 161.864 90.5986 163.045C90.6388 164.594 91.5975 165.456 93.4462 165.61C98.1138 165.994 106.298 161.693 106.918 158.528C106.417 161.112 102.534 164.045 98.3535 165.388ZM92.3808 159.561C92.6652 161.444 93.6159 162.828 94.4233 163.078C94.8029 163.192 95.1515 163.062 95.4554 162.685C95.9915 162.011 96.4304 161.267 96.7594 160.473C96.6568 160.249 96.5799 160.014 96.53 159.773C96.3993 159.151 96.3775 158.295 96.53 157.716C95.6509 157.924 94.795 158.22 93.9749 158.597C93.4092 158.858 92.8745 159.182 92.3808 159.561ZM97.3626 160.442C97.4101 160.529 97.4782 160.605 97.5613 160.661C97.6444 160.717 97.7399 160.752 97.8397 160.763C98.2503 160.78 98.7434 160.347 99.1907 159.571C99.4171 159.173 99.6041 158.754 99.7492 158.32C99.6605 157.962 99.6098 157.596 99.5978 157.228C98.9969 157.276 98.3363 157.356 97.6677 157.478C98.0209 158.154 97.8179 159.3 97.3649 160.442H97.3626ZM100.317 158.327C100.402 158.58 100.477 158.628 100.477 158.63C100.78 158.372 101.127 157.813 101.441 157.177C101.184 157.166 100.894 157.165 100.578 157.177C100.526 157.567 100.439 157.952 100.317 158.327ZM97.1367 157.637C96.9991 157.922 96.9004 158.834 97.0679 159.646C97.3397 158.757 97.3959 157.986 97.1367 157.638V157.637ZM102.391 154.539C102.332 154.725 102.289 154.915 102.263 155.108C102.319 154.921 102.361 154.731 102.391 154.539Z" fill="#F99746"/>
<path d="M71.2169 85.9851H50.6475V65.5953H71.2169V85.9851ZM51.6165 85.0245H70.2466V66.5559H51.6165V85.0245Z" fill="#ABDDDA"/>
<path d="M61.4429 81.8869C61.229 81.8868 61.0177 81.8398 60.8242 81.7495C60.6308 81.6591 60.4598 81.5274 60.3235 81.364L53.9759 73.7473C53.8543 73.6016 53.7628 73.4335 53.7067 73.2527C53.6507 73.0718 53.6311 72.8818 53.6491 72.6935C53.6671 72.5052 53.7223 72.3222 53.8116 72.1551C53.9009 71.9879 54.0226 71.8398 54.1697 71.7193C54.3168 71.5987 54.4863 71.5081 54.6687 71.4525C54.8511 71.3969 55.0428 71.3775 55.2328 71.3953C55.4228 71.4131 55.6074 71.4679 55.776 71.5565C55.9446 71.645 56.094 71.7656 56.2156 71.9114L61.2502 77.9479L70.3617 62.8021C70.5594 62.4738 70.8806 62.2368 71.2546 62.1432C71.6286 62.0496 72.0248 62.1071 72.3561 62.3031C72.6873 62.499 72.9264 62.8174 73.0208 63.1882C73.1152 63.5589 73.0572 63.9516 72.8595 64.28L62.6917 81.1832C62.5725 81.3814 62.4071 81.5482 62.2093 81.6699C62.0116 81.7915 61.7873 81.8644 61.5552 81.8824C61.5174 81.8858 61.4807 81.8869 61.4429 81.8869Z" fill="#F99746"/>
<path d="M71.2169 117.866H50.6475V97.476H71.2169V117.866ZM51.6165 116.905H70.2466V98.4366H51.6165V116.905Z" fill="#ABDDDA"/>
<path d="M61.4422 113.592C61.2283 113.592 61.0171 113.545 60.8236 113.455C60.6301 113.365 60.4592 113.233 60.3229 113.07L53.9753 105.453C53.8498 105.308 53.7547 105.139 53.6957 104.957C53.6366 104.775 53.6148 104.583 53.6314 104.392C53.6479 104.202 53.7026 104.016 53.7923 103.847C53.8819 103.678 54.0046 103.528 54.1534 103.406C54.3021 103.284 54.4738 103.193 54.6585 103.137C54.8432 103.082 55.0372 103.064 55.2291 103.084C55.421 103.103 55.607 103.161 55.7763 103.252C55.9456 103.344 56.0947 103.469 56.215 103.618L61.2496 109.653L70.3554 94.5032C70.5531 94.1749 70.8743 93.9378 71.2483 93.8442C71.6223 93.7507 72.0185 93.8082 72.3497 94.0041C72.6809 94.2001 72.9201 94.5185 73.0145 94.8892C73.1089 95.26 73.0509 95.6527 72.8532 95.981L62.6911 112.888C62.5719 113.086 62.4065 113.253 62.2087 113.374C62.011 113.496 61.7867 113.569 61.5546 113.587C61.5168 113.59 61.4801 113.592 61.4422 113.592Z" fill="#F99746"/>
<path d="M71.2169 149.087H50.6475V128.697H71.2169V149.087ZM51.6165 148.127H70.2466V129.657H51.6165V148.127Z" fill="#ABDDDA"/>
<path d="M61.4428 144.513C61.2289 144.513 61.0176 144.466 60.824 144.376C60.6305 144.285 60.4596 144.153 60.3235 143.99L53.9759 136.373C53.8543 136.227 53.7628 136.059 53.7067 135.878C53.6507 135.698 53.6311 135.508 53.6491 135.319C53.6671 135.131 53.7223 134.948 53.8116 134.781C53.9009 134.614 54.0226 134.466 54.1697 134.345C54.3168 134.224 54.4863 134.134 54.6687 134.078C54.8511 134.023 55.0428 134.003 55.2328 134.021C55.4228 134.039 55.6074 134.094 55.776 134.182C55.9446 134.271 56.094 134.391 56.2156 134.537L61.2502 140.574L70.356 125.423C70.5537 125.095 70.8749 124.858 71.2489 124.764C71.6229 124.671 72.0191 124.728 72.3503 124.924C72.6815 125.12 72.9206 125.439 73.0151 125.809C73.1095 126.18 73.0514 126.573 72.8537 126.901L62.6917 143.807C62.5727 144.005 62.4073 144.172 62.2095 144.294C62.0117 144.415 61.7873 144.488 61.5552 144.506C61.5174 144.512 61.4807 144.513 61.4428 144.513Z" fill="#F99746"/>
<g opacity="0.5">
<path opacity="0.5" d="M111.9 70.3528H85.0781V72.3422H111.9V70.3528Z" fill="#ABDDDA"/>
<path opacity="0.5" d="M134.691 70.3528H128.595V72.3422H134.691V70.3528Z" fill="#ABDDDA"/>
<path opacity="0.5" d="M111.9 79.2381H85.0781V81.2275H111.9V79.2381Z" fill="#ABDDDA"/>
<path opacity="0.5" d="M134.691 79.2381H125.603V81.2275H134.691V79.2381Z" fill="#ABDDDA"/>
<path opacity="0.5" d="M134.691 74.7955H127.221V76.7849H134.691V74.7955Z" fill="#ABDDDA"/>
<path opacity="0.5" d="M112.365 74.7955H104.894V76.7849H112.365V74.7955Z" fill="#ABDDDA"/>
<path opacity="0.5" d="M101.677 74.7955H85.0781V76.7849H101.677V74.7955Z" fill="#ABDDDA"/>
</g>
<g opacity="0.5">
<path opacity="0.5" d="M110.876 100.973H85.0781V102.962H110.876V100.973Z" fill="#ABDDDA"/>
<path opacity="0.5" d="M111.9 109.858H85.0781V111.848H111.9V109.858Z" fill="#ABDDDA"/>
<path opacity="0.5" d="M110.542 105.415H103.601V107.405H110.542V105.415Z" fill="#ABDDDA"/>
<path opacity="0.5" d="M101.677 105.415H85.0781V107.405H101.677V105.415Z" fill="#ABDDDA"/>
</g>
<g opacity="0.5">
<path opacity="0.5" d="M111.9 132.46H85.0781V134.45H111.9V132.46Z" fill="#ABDDDA"/>
<path opacity="0.5" d="M111.9 141.345H85.0781V143.335H111.9V141.345Z" fill="#ABDDDA"/>
<path opacity="0.5" d="M115.265 136.903H103.601V138.892H115.265V136.903Z" fill="#ABDDDA"/>
<path opacity="0.5" d="M101.677 136.903H85.0781V138.892H101.677V136.903Z" fill="#ABDDDA"/>
</g>
<path d="M64.719 159.987H50.6475V161.399H64.719V159.987Z" fill="#ABDDDA"/>
<path d="M82.049 159.987H67.9775V161.399H82.049V159.987Z" fill="#ABDDDA"/>
<path d="M70.1618 163.12H50.6475V164.532H70.1618V163.12Z" fill="#ABDDDA"/>
<path d="M57.9756 46.1851V39.8181H60.7555C61.2666 39.8047 61.7748 39.8993 62.2463 40.0955C62.6392 40.2615 62.9742 40.5382 63.2097 40.8914C63.4319 41.2647 63.5491 41.6903 63.5491 42.1238C63.5491 42.5573 63.4319 42.9829 63.2097 43.3563C62.9738 43.7091 62.6389 43.9858 62.2463 44.1522C61.7747 44.3478 61.2666 44.4423 60.7555 44.4296H58.8059L59.4665 43.7656V46.1851H57.9756ZM59.4665 43.9293L58.8059 43.229H60.6775C61.1362 43.229 61.4803 43.1312 61.7096 42.9379C61.927 42.7218 62.0491 42.429 62.0491 42.1238C62.0491 41.8186 61.927 41.5259 61.7096 41.3098C61.4803 41.1153 61.1362 41.0187 60.6775 41.0187H58.8059L59.4665 40.3183V43.9293Z" fill="#74B2AC"/>
<path d="M64.5986 46.1851V39.8181H67.3797C67.8909 39.8047 68.3991 39.8993 68.8706 40.0955C69.2634 40.2615 69.5984 40.5382 69.8339 40.8914C70.0687 41.2612 70.1884 41.6915 70.1779 42.1284C70.1878 42.5609 70.0681 42.9867 69.8339 43.3517C69.5974 43.7019 69.2625 43.9755 68.8706 44.1385C68.3982 44.3314 67.8904 44.4243 67.3797 44.4114H65.4301L66.0907 43.7656V46.1851H64.5986ZM66.0895 43.9293L65.4289 43.238H67.3006C67.7593 43.238 68.1033 43.1391 68.3327 42.9424C68.5501 42.7254 68.6721 42.432 68.6721 42.1261C68.6721 41.8202 68.5501 41.5268 68.3327 41.3098C68.1033 41.1153 67.7593 41.0187 67.3006 41.0187H65.4301L66.0907 40.3183L66.0895 43.9293ZM68.6859 46.1851L67.0804 43.8747H68.6676L70.2915 46.1851H68.6859Z" fill="#74B2AC"/>
<path d="M72.8189 45.0026H76.3144V46.185H71.3418V39.8181H76.1951V41.0005H72.8189V45.0026ZM72.7042 42.3876H75.8006V43.5336H72.7042V42.3876Z" fill="#74B2AC"/>
<path d="M79.6085 46.2942C79.1088 46.2962 78.6114 46.2273 78.1313 46.0895C77.7224 45.983 77.3367 45.8026 76.9937 45.5574L77.4983 44.4478C77.7987 44.6534 78.1279 44.8143 78.4754 44.9253C78.845 45.0486 79.2323 45.1116 79.6223 45.1118C79.8623 45.1183 80.102 45.0891 80.3333 45.0253C80.4865 44.9838 80.6249 44.9002 80.7324 44.7843C80.8162 44.6848 80.8617 44.5592 80.8609 44.4296C80.8633 44.3509 80.8462 44.2728 80.811 44.2022C80.7758 44.1316 80.7236 44.0707 80.659 44.0248C80.4977 43.9124 80.3175 43.8292 80.1269 43.7792C79.9067 43.7156 79.6681 43.6542 79.3975 43.5973C79.1268 43.5405 78.8653 43.4677 78.5947 43.3836C78.3394 43.3032 78.0946 43.1933 77.8653 43.0561C77.6472 42.9244 77.4633 42.7437 77.3285 42.5286C77.1835 42.2735 77.114 41.9831 77.1278 41.6906C77.1245 41.3366 77.2284 40.9896 77.426 40.6947C77.6493 40.3739 77.9616 40.1243 78.3252 39.9761C78.8036 39.7823 79.3179 39.6909 79.8344 39.7078C80.2363 39.7074 80.6367 39.7548 81.0272 39.8488C81.3923 39.9326 81.7411 40.0755 82.0593 40.2717L81.6006 41.3905C81.3181 41.2277 81.016 41.1009 80.7015 41.013C80.4148 40.9331 80.1185 40.8918 79.8207 40.8902C79.5811 40.8828 79.3421 40.9167 79.1142 40.9903C78.9598 41.0364 78.8226 41.1265 78.7197 41.2495C78.6412 41.3563 78.6009 41.4859 78.605 41.6179C78.6032 41.6952 78.6206 41.7718 78.6558 41.8408C78.6911 41.9098 78.7429 41.9692 78.8068 42.0135C78.9678 42.1255 79.1482 42.2072 79.339 42.2546C79.5592 42.3145 79.8023 42.3751 80.0684 42.4365C80.3345 42.4979 80.6021 42.5676 80.8712 42.6457C81.1274 42.7196 81.3726 42.8267 81.6006 42.964C81.819 43.0955 82.0029 43.2762 82.1373 43.4916C82.2836 43.7426 82.3552 44.0296 82.3438 44.3193C82.3458 44.6696 82.2402 45.0123 82.041 45.3016C81.8129 45.6197 81.4999 45.8685 81.1373 46.0202C80.6533 46.219 80.132 46.3124 79.6085 46.2942Z" fill="#74B2AC"/>
<path d="M86.4252 46.2942C85.9555 46.2978 85.489 46.2161 85.049 46.0531C84.6377 45.9016 84.2614 45.6696 83.9423 45.371C83.6313 45.0742 83.3836 44.7185 83.2141 44.325C82.8655 43.4797 82.8655 42.5325 83.2141 41.6872C83.3838 41.2926 83.6332 40.9367 83.9469 40.6412C84.2661 40.3428 84.6424 40.1109 85.0536 39.9591C85.9912 39.6228 87.0206 39.6389 87.947 40.0046C88.3884 40.1889 88.7775 40.4778 89.0801 40.8459L88.1271 41.7191C87.9244 41.4835 87.6739 41.2929 87.392 41.1597C87.1164 41.0335 86.8159 40.9698 86.5123 40.9732C86.2299 40.9697 85.9494 41.0191 85.6855 41.1188C85.4415 41.2113 85.2199 41.3539 85.0352 41.5372C84.8498 41.7213 84.7042 41.9411 84.6075 42.183C84.4071 42.7169 84.4071 43.3044 84.6075 43.8384C84.7045 44.0801 84.85 44.2998 85.0352 44.4841C85.2202 44.667 85.4417 44.8095 85.6855 44.9025C85.9496 45.0017 86.23 45.0511 86.5123 45.0481C86.8158 45.0508 87.1161 44.9871 87.392 44.8616C87.6752 44.7265 87.9259 44.5327 88.1271 44.2931L89.0801 45.1663C88.7765 45.5345 88.3878 45.8247 87.947 46.0122C87.4648 46.2094 86.9467 46.3054 86.4252 46.2942Z" fill="#74B2AC"/>
<path d="M90.0752 46.1851V39.8181H92.855C93.3662 39.8045 93.8745 39.8991 94.3459 40.0955C94.7391 40.2609 95.0742 40.5378 95.3092 40.8914C95.5446 41.261 95.6643 41.6914 95.6532 42.1284C95.6637 42.561 95.5439 42.9869 95.3092 43.3518C95.0733 43.7024 94.7382 43.9761 94.3459 44.1385C93.8736 44.3317 93.3658 44.4247 92.855 44.4114H90.9055L91.566 43.7656V46.1851H90.0752ZM91.566 43.9293L90.9055 43.2381H92.7771C93.2358 43.2381 93.5798 43.1395 93.8092 42.9425C94.0266 42.7254 94.1486 42.432 94.1486 42.1261C94.1486 41.8203 94.0266 41.5268 93.8092 41.3098C93.5798 41.1157 93.2358 41.0187 92.7771 41.0187H90.9009L91.5614 40.3183L91.566 43.9293ZM94.1624 46.1851L92.5569 43.8748H94.1441L95.7679 46.1851H94.1624Z" fill="#74B2AC"/>
<path d="M96.8188 46.185V39.8181H98.3097V46.185H96.8188Z" fill="#74B2AC"/>
<path d="M99.8276 46.1851V39.8181H102.607C103.119 39.8047 103.627 39.8993 104.098 40.0955C104.491 40.2609 104.827 40.5378 105.062 40.8914C105.284 41.2647 105.401 41.6903 105.401 42.1238C105.401 42.5573 105.284 42.9829 105.062 43.3563C104.826 43.7094 104.491 43.9862 104.098 44.1522C103.627 44.3478 103.119 44.4423 102.607 44.4296H100.658L101.318 43.7656V46.1851H99.8276ZM101.318 43.9293L100.658 43.229H102.529C102.988 43.229 103.332 43.1312 103.562 42.9379C103.779 42.7218 103.901 42.429 103.901 42.1238C103.901 41.8186 103.779 41.5259 103.562 41.3098C103.332 41.1157 102.988 41.0187 102.529 41.0187H100.658L101.318 40.3183V43.9293Z" fill="#74B2AC"/>
<path d="M107.608 46.185V41.0187H105.553V39.8181H111.15V41.0187H109.095V46.185H107.608Z" fill="#74B2AC"/>
<path d="M111.947 46.185V39.8181H113.438V46.185H111.947Z" fill="#74B2AC"/>
<path d="M118.076 46.2941C117.595 46.2991 117.118 46.2158 116.668 46.0486C116.252 45.8941 115.871 45.6591 115.548 45.3573C115.234 45.0617 114.985 44.7058 114.814 44.3113C114.467 43.4737 114.467 42.534 114.814 41.6963C114.985 41.301 115.237 40.9449 115.553 40.6503C115.877 40.3493 116.257 40.1144 116.672 39.9591C117.574 39.6316 118.564 39.6316 119.466 39.9591C119.878 40.1145 120.256 40.3495 120.576 40.6503C120.899 40.9524 121.155 41.3179 121.328 41.7235C121.501 42.129 121.587 42.5658 121.581 43.0061C121.585 43.4578 121.495 43.9054 121.315 44.3204C121.143 44.7152 120.891 45.0712 120.576 45.3664C120.254 45.6627 119.877 45.8944 119.466 46.0486C119.022 46.2156 118.551 46.2989 118.076 46.2941ZM118.067 45.0435C118.338 45.0463 118.608 44.9968 118.86 44.898C119.099 44.8025 119.316 44.6602 119.498 44.4796C119.683 44.2952 119.828 44.0755 119.925 43.8338C120.126 43.3001 120.126 42.7121 119.925 42.1784C119.829 41.9374 119.685 41.7179 119.503 41.5326C119.322 41.3503 119.105 41.2077 118.865 41.1142C118.609 41.0144 118.337 40.965 118.062 40.9687C117.791 40.9654 117.521 41.0148 117.269 41.1142C117.029 41.2092 116.813 41.3516 116.631 41.5326C116.446 41.7168 116.301 41.9365 116.204 42.1784C116.002 42.7105 116.002 43.2972 116.204 43.8292C116.3 44.0718 116.443 44.293 116.626 44.4796C116.807 44.6614 117.024 44.8039 117.264 44.898C117.521 44.996 117.794 45.0438 118.069 45.039L118.067 45.0435Z" fill="#74B2AC"/>
<path d="M122.701 46.185V39.8181H123.93L127.715 44.4022H127.118V39.8181H128.586V46.185H127.371L123.575 41.6008H124.171V46.185H122.701Z" fill="#74B2AC"/>
<path d="M67.3796 175.509C67.3744 176.799 66.8551 178.034 65.9348 178.946C65.0145 179.859 63.7679 180.373 62.4666 180.378H39.2698C37.967 180.378 36.7177 179.865 35.7966 178.952C34.8754 178.039 34.3579 176.8 34.3579 175.509C34.3579 174.218 34.8754 172.979 35.7966 172.066C36.7177 171.153 37.967 170.64 39.2698 170.64H62.4677C63.7688 170.645 65.0152 171.16 65.9352 172.072C66.8553 172.984 67.3744 174.219 67.3796 175.509Z" fill="#2B478B"/>
<path d="M55.4136 175.509C55.4085 176.798 54.8895 178.034 53.9697 178.946C53.0499 179.858 51.8038 180.372 50.5029 180.378H39.2698C37.9671 180.378 36.7177 179.865 35.7966 178.952C34.8754 178.039 34.3579 176.8 34.3579 175.509C34.3579 174.218 34.8754 172.979 35.7966 172.066C36.7177 171.153 37.9671 170.64 39.2698 170.64H50.5029C51.8038 170.645 53.0499 171.16 53.9697 172.072C54.8895 172.984 55.4085 174.219 55.4136 175.509Z" fill="#699FF0"/>
<path opacity="0.4" d="M62.8612 171.72H40.7332C40.3488 171.72 40.0371 172.029 40.0371 172.41V172.566C40.0371 172.947 40.3488 173.256 40.7332 173.256H62.8612C63.2457 173.256 63.5574 172.947 63.5574 172.566V172.41C63.5574 172.029 63.2457 171.72 62.8612 171.72Z" fill="#E9F3FE"/>
<path d="M47.5848 161.716C48.201 162.941 48.3026 164.359 47.8674 165.658C47.4322 166.958 46.4956 168.034 45.2624 168.651L23.2745 179.573C22.0416 180.171 20.6206 180.262 19.3203 179.827C18.0201 179.391 16.9457 178.465 16.3308 177.249C15.7159 176.032 15.6102 174.625 16.0366 173.332C16.463 172.039 17.3871 170.965 18.608 170.343L40.596 159.421C41.8305 158.811 43.2585 158.71 44.5679 159.14C45.8774 159.57 46.9619 160.496 47.5848 161.716Z" fill="#EF7E29"/>
<path d="M36.2427 167.35C36.8593 168.575 36.9613 169.993 36.5263 171.292C36.0913 172.592 35.1548 173.668 33.9216 174.285L23.2745 179.573C22.0416 180.171 20.6206 180.262 19.3203 179.826C18.0201 179.391 16.9457 178.465 16.3308 177.249C15.7159 176.032 15.6102 174.625 16.0366 173.332C16.463 172.038 17.3871 170.965 18.608 170.343L29.2551 165.054C30.4898 164.445 31.9173 164.344 33.2263 164.774C34.5354 165.205 35.6197 166.13 36.2427 167.35Z" fill="#F99746"/>
<path opacity="0.5" d="M42.2222 161.709L21.2491 172.127C21.074 172.213 20.8714 172.228 20.6857 172.167C20.5 172.105 20.3463 171.974 20.2582 171.801L20.1837 171.653C20.0964 171.479 20.082 171.279 20.1437 171.095C20.2054 170.911 20.3381 170.759 20.5128 170.672L41.486 160.253C41.6612 160.167 41.8636 160.153 42.0491 160.214C42.2346 160.275 42.3883 160.406 42.4768 160.579L42.5514 160.727C42.6381 160.901 42.6522 161.101 42.5906 161.285C42.5289 161.469 42.3966 161.621 42.2222 161.709Z" fill="#FFE2CC"/>
<path d="M77.9353 89.9961L79.3267 93.9567L99.4284 87.0177L98.037 83.0571L77.9353 89.9961Z" fill="#F99746"/>
<path d="M73.9731 93.5917L79.3427 93.9588L77.9504 89.998L73.9731 93.5917Z" fill="#F9DDBF"/>
<path d="M100.851 83.568L101.291 84.8182C101.421 85.188 101.397 85.5937 101.225 85.9462C101.053 86.2987 100.747 86.5691 100.374 86.698L99.4439 87.0185L98.0527 83.0577L99.0643 82.7087C99.2385 82.6488 99.423 82.6235 99.6071 82.6342C99.7912 82.645 99.9714 82.6916 100.137 82.7714C100.303 82.8512 100.452 82.9626 100.574 83.0993C100.697 83.236 100.791 83.3952 100.851 83.568Z" fill="#F9DDBF"/>
<path d="M147.71 171.38C147.71 171.38 149.617 173.104 149.245 174.336C148.872 175.567 147.152 176.382 146.919 177.877C146.686 179.372 145.756 180.192 144.919 180.192H140.927C140.927 180.192 140.311 179.138 141.799 178.82C143.288 178.503 143.849 176.741 143.756 175.108C143.663 173.474 143.896 171.294 143.896 171.294L147.059 170.567L147.71 171.38Z" fill="#233862"/>
<path d="M124.312 175.842C124.312 175.842 124.656 179.769 123.817 180.177L113.102 180.156C113.102 180.156 113.102 178.93 114.822 178.657C116.543 178.384 119.568 177.386 120.079 175.161C120.591 172.936 124.312 175.842 124.312 175.842Z" fill="#233862"/>
<path d="M143.68 114.245C143.68 114.245 144.723 117.428 144.633 118.158C144.544 118.888 143.889 121.376 143.421 122.013C142.953 122.649 142.723 119.418 142.352 118.933C141.982 118.447 142.277 120.149 142.015 120.306C141.754 120.463 141.213 119.055 140.976 118.556C140.74 118.057 141.55 116.224 141.55 114.945C141.55 113.666 143.68 114.245 143.68 114.245Z" fill="#FFB27D"/>
<path d="M119.149 88.951C118.86 85.2995 122.861 82.7963 126.021 84.6947L126.213 84.8141C130.944 87.8323 141.151 101.915 141.853 103.326C142.555 104.737 144.628 115.96 144.628 115.96C144.628 115.96 142.066 116.889 140.868 115.925C140.868 115.925 136.713 105.281 136.099 104.749C135.486 104.217 119.479 95.3137 119.343 91.9772C119.306 91.095 119.235 90.0343 119.149 88.951Z" fill="#233862"/>
<path d="M115.265 120.378C115.265 120.378 115.831 127.26 116.495 135.534C117.398 146.773 118.483 160.577 118.591 163.192C118.777 167.739 119.522 174.997 119.522 174.997C119.522 174.997 121.288 176.723 124.825 175.996C124.825 175.996 127.975 165.627 128.876 154.655L128.917 154.113C129.755 142.944 131.057 119.424 131.057 119.424L115.265 120.378Z" fill="#F99746"/>
<path d="M115.265 120.378C115.265 120.378 115.831 127.26 116.495 135.534L128.88 154.655L128.922 154.113C129.76 142.944 131.061 119.424 131.061 119.424L115.265 120.378Z" fill="#EF7E29"/>
<path d="M117.847 121.195C117.847 121.195 128.034 146.121 134.732 157.835C141.429 169.549 143.523 172.818 143.523 172.818C143.523 172.818 147.362 171.32 147.71 170.298C147.71 170.298 145.148 147.684 140.663 142.172C138.129 139.056 135.15 129.708 135.012 126.44C134.873 123.171 134.105 116.701 134.105 116.701L117.847 121.195Z" fill="#F99746"/>
<path d="M126.63 83.8058C126.63 83.8058 119.805 87.2367 115.808 86.0919C116.546 85.2078 117.444 84.4669 118.455 83.907C118.301 83.1192 118.18 82.4291 118.11 81.8539C118.001 81.1588 117.931 80.4582 117.901 79.7554L120.518 77.6295L123.001 75.5958C122.909 81.1786 126.63 83.8058 126.63 83.8058Z" fill="#FFB27D"/>
<path d="M133.411 118.673C130.658 120.327 128.046 121.57 124.993 122.268C121.391 123.115 116.965 122.864 115.484 123.088C115.331 123.105 115.177 123.065 115.052 122.975C114.937 122.916 114.283 118.56 113.628 113.065C113.599 112.838 113.568 112.621 113.556 112.397L113.546 112.323C113.292 110.174 113.069 107.918 112.875 105.654C112.717 103.894 112.588 102.154 112.497 100.518C112.382 98.4718 112.336 96.5927 112.382 95.0466C112.403 94.3407 112.445 93.7052 112.508 93.1538C112.898 89.9435 114.443 87.6494 115.898 85.9408L117.105 84.5766C118.504 84.6641 119.933 84.4026 121.281 83.5205C122.754 82.5587 124.345 81.5242 124.645 81.7016C126.903 82.9271 128.743 86.101 130.057 90.2936C130.856 92.9243 131.425 95.6182 131.758 98.3456C131.873 99.246 131.978 100.165 132.055 101.089C132.071 101.259 132.082 101.43 132.096 101.596C132.274 104.109 132.563 106.465 132.884 108.568C133.316 111.41 133.802 113.782 134.155 115.456C134.329 116.307 134.462 116.967 134.541 117.438C134.612 117.857 133.781 118.444 133.411 118.673Z" fill="#2B478B"/>
<path d="M123.085 77.7272C123.085 77.7272 121.406 80.9095 118.107 81.8517C117.998 81.1568 117.928 80.4563 117.897 79.7537L120.515 77.6284L123.085 77.7272Z" fill="#ED985F"/>
<path d="M116.684 79.6883C116.684 79.6883 123.278 80.625 123.816 76.6064C124.353 72.5878 125.565 70.0026 121.376 69.2342C117.188 68.4657 116.164 69.8958 115.65 71.1952C115.136 72.4945 114.982 79.3404 116.684 79.6883Z" fill="#FFB27D"/>
<path d="M126.047 68.6623C126.105 68.5941 126.242 68.5361 126.548 68.5134C126.371 68.419 126.175 68.3683 125.974 68.3656C125.902 67.9439 125.66 67.2015 124.924 67.0344C125.045 67.1012 125.149 67.1941 125.228 67.3063C125.307 67.4185 125.36 67.5471 125.383 67.6824C124.516 66.8343 122.684 66.2409 117.654 66.7343C111.024 67.3845 113.296 71.5555 114.167 72.0409C115.037 72.5264 117.172 71.1065 118.777 71.202C120.381 71.2975 120.726 73.5836 121.28 73.8883C121.834 74.1929 121.606 73.6393 122.334 73.296C123.063 72.9527 123.157 74.1588 122.96 74.9478C122.764 75.7367 123.794 76.753 123.794 76.753L124.793 75.6424C125.792 74.5328 126.661 69.898 126.178 68.9238C126.133 68.8374 126.09 68.7465 126.047 68.6623Z" fill="#2C3A64"/>
<path d="M123.953 95.4104C123.953 95.4104 118.392 99.6046 112.497 100.527C112.382 98.4802 112.336 96.6008 112.382 95.0546L123.953 95.4104Z" fill="#233862"/>
<path d="M89.8026 89.9984C89.7143 89.9052 88.5812 86.1476 86.6201 86.4216C85.3403 86.6001 83.2496 87.3311 83.8047 89.0059C84.0237 89.663 87.9218 91.9256 87.9218 91.9256L89.8026 89.9984Z" fill="#FFB27D"/>
<path d="M124.641 87.306C127.812 89.1863 127.555 93.87 124.163 95.324C124.094 95.3547 124.024 95.3831 123.954 95.4115C118.733 97.4873 101.24 97.5839 99.6736 97.3338C98.107 97.0838 87.6743 92.2637 87.6743 92.2637C87.6743 92.2637 88.3934 89.6547 89.8797 89.2443C89.8797 89.2443 101.041 92.0488 101.833 91.859C102.626 91.6691 119.216 83.8876 122.04 85.7088C122.787 86.1919 123.701 86.749 124.641 87.306Z" fill="#2B478B"/>
<path d="M187.064 176.6C187.061 177.566 186.672 178.493 185.982 179.176C185.293 179.86 184.358 180.245 183.383 180.248H166.003C165.038 180.231 164.119 179.839 163.443 179.157C162.767 178.475 162.388 177.557 162.388 176.6C162.388 175.644 162.767 174.725 163.443 174.043C164.119 173.361 165.038 172.969 166.003 172.952H183.383C184.358 172.955 185.293 173.34 185.983 174.023C186.672 174.706 187.061 175.633 187.064 176.6Z" fill="#EF7E29"/>
<path d="M178.098 176.6C178.096 177.566 177.707 178.493 177.018 179.176C176.328 179.86 175.393 180.245 174.418 180.248H166.003C165.038 180.231 164.119 179.839 163.443 179.157C162.767 178.475 162.388 177.557 162.388 176.6C162.388 175.644 162.767 174.725 163.443 174.043C164.119 173.361 165.038 172.969 166.003 172.952H174.418C175.393 172.955 176.328 173.34 177.017 174.023C177.707 174.707 178.095 175.633 178.098 176.6Z" fill="#F99746"/>
<path opacity="0.5" d="M183.677 173.76H167.099C166.811 173.76 166.577 173.992 166.577 174.278V174.394C166.577 174.68 166.811 174.912 167.099 174.912H183.677C183.966 174.912 184.199 174.68 184.199 174.394V174.278C184.199 173.992 183.966 173.76 183.677 173.76Z" fill="#FFE2CC"/>
<path d="M199.062 180.099H-0.0620664C-0.218985 180.099 -0.346191 180.297 -0.346191 180.54V180.953C-0.346191 181.197 -0.218985 181.394 -0.0620664 181.394H199.062C199.219 181.394 199.346 181.197 199.346 180.953V180.54C199.346 180.297 199.219 180.099 199.062 180.099Z" fill="#2E3552"/>
</g>
<defs>
<clipPath id="clip0_724_2410">
<rect width="199" height="183.859" fill="white" transform="translate(0 -0.000244141)"/>
</clipPath>
</defs>
</svg>
