<?xml version="1.0" encoding="UTF-8"?>
<svg id="Layer_1" data-name="Layer 1" xmlns="http://www.w3.org/2000/svg" viewBox="0 0 216.57 48">
  <defs>
    <style>
      .cls-1 {
        fill: #102967;
      }

      .cls-2 {
        fill: #ff9c0b;
      }
    </style>
  </defs>
  <path class="cls-1" d="M37.97,40.83c-2.26,0-4.46,0-6.66,0-9.04,0-18.07-.02-27.11-.03-1.59,0-2.74-.89-3-2.3-.26-1.37,.41-2.7,1.71-3.19,.53-.2,1.15-.23,1.73-.23,5.16-.02,10.32,0,15.48-.02,2.13,0,3.52-1.72,2.99-3.64-.33-1.21-1.38-2.03-2.69-2.07-1.02-.03-2.04,.02-3.06-.01-1.81-.06-3.04-1.29-3.01-2.97,.03-1.62,1.27-2.75,3.07-2.78,.95-.01,1.91,.01,2.86-.02,1.68-.06,2.94-1.28,2.95-2.83,.01-1.61-1.27-2.85-3-2.86-4.57-.03-9.13-.03-13.7-.07-1.61-.01-2.75-1.12-2.86-2.68-.1-1.49,.98-2.79,2.53-3.01,.36-.05,.72-.04,1.08-.04,3.98,.01,7.95,.03,11.93,.04,.36,0,.72,0,1.08-.01,1.71-.1,2.93-1.29,2.93-2.85,0-1.56-1.2-2.76-2.89-2.89-1.93-.15-3.08-1.34-2.98-3.07,.09-1.45,1.22-2.58,2.68-2.66,.26-.01,.53,0,.79,0,18.89,0,37.79,0,56.68,0,1.89,0,2.44,.62,2.3,2.53-.07,.98-.11,1.97-.17,2.95,0,.1,.02,.19,.05,.46h1.02c4.67,0,9.33,.02,14-.01,1.09,0,1.85,.39,2.49,1.28,3.01,4.23,6.04,8.44,9.1,12.63,.65,.89,.84,1.79,.76,2.86-.29,4.33-.54,8.66-.79,12.98-.19,3.31-1.45,4.51-4.76,4.51-.39,0-.78,0-1.29,0,.19-3.07-.66-5.7-3.03-7.68-1.52-1.27-3.29-1.9-5.26-1.93-2.66-.04-4.94,.93-6.84,2.77-1.91,1.85-2.82,4.15-2.97,6.8h-26.01c.22-3.2-.75-5.93-3.37-7.91-1.63-1.24-3.52-1.74-5.55-1.66-3.67,.15-8.71,2.99-9.22,9.61Zm53.67-20.94c2.82,0,5.64,0,8.46-.01,.3,0,.6-.16,.9-.25-.09-.27-.13-.57-.28-.79-1.86-2.78-3.73-5.56-5.64-8.3-.22-.31-.72-.59-1.09-.59-3.44-.05-6.89-.01-10.33-.04-.73,0-.96,.26-1,.97-.13,2.69-.28,5.37-.48,8.05-.05,.74,.15,.99,.9,.98,2.85-.03,5.71-.01,8.56-.01Z"/>
  <path class="cls-2" d="M214.29,29.95H109.71c0-.4-.02-.78,0-1.15,.12-1.93,.23-3.87,.37-5.8,.11-1.48-.3-2.77-1.17-3.97-2.76-3.8-5.5-7.62-8.24-11.43-.19-.26-.37-.54-.64-.94,.37-.03,.64-.07,.9-.07,24.68,0,49.36,0,74.04,0,11.9,0,23.79,0,35.69,0,3.45,0,4.94,1.54,4.75,4.97-.33,5.9-.68,11.81-1.03,17.71-.01,.19-.04,.39-.08,.68Zm-52.51-10.15c.81-.28,1.24-.04,1.52,.69,.32,.82,.74,1.61,1.16,2.39,.12,.23,.38,.54,.58,.55,1.09,.05,2.19,.03,3.44,.03-.79-1.51-1.5-2.87-2.22-4.24,.28-.19,.54-.34,.76-.52,1.02-.83,1.35-1.9,1.06-3.17-.28-1.2-1.05-2.14-2.24-2.21-2.44-.15-4.89-.04-7.38-.04v10.11h3.31v-3.57Zm-33.02,1.13v-1.52h4.62v-2.43h-4.58v-1.37h5.39v-2.43h-8.73v10.21h8.82v-2.46h-5.52Zm41.28,2.4h8.85v-2.42h-5.48v-1.5h4.62v-2.43h-4.62v-1.38h5.42v-2.42h-8.79v10.14Zm10.25-3.38c-.05,1.25,.26,2.32,1.33,2.85,2.16,1.07,4.41,1.2,6.63,.15,1.29-.61,1.68-1.78,1.61-3.12-.06-1.33-.91-2.06-2.08-2.45-.77-.26-1.59-.4-2.38-.61-.38-.1-.77-.19-1.12-.35-.18-.08-.4-.32-.4-.49,0-.17,.21-.39,.39-.49,.73-.42,1.65-.15,2.13,.55,.11,.16,.3,.36,.47,.37,.88,.04,1.76,.02,2.67,.02,.1-1.28-.39-2.18-1.41-2.69-2.1-1.03-4.24-1.01-6.34,.05-.82,.41-1.24,1.14-1.34,2.05-.2,1.79,.6,2.89,2.6,3.47,.91,.27,1.85,.44,2.76,.72,.24,.08,.4,.43,.6,.65-.25,.17-.48,.44-.75,.49-1.31,.26-1.85-.02-2.41-1.17h-2.95Zm10.78,.03c-.07,1.41,.34,2.38,1.38,2.87,2.09,.99,4.25,1.09,6.39,.18,1.29-.55,1.87-1.73,1.76-3.23-.09-1.34-.95-2.04-2.11-2.44-.56-.19-1.14-.31-1.71-.46-.57-.15-1.15-.26-1.7-.47-.2-.07-.4-.35-.43-.56-.02-.13,.24-.37,.42-.46,.74-.38,1.59-.13,2.07,.54,.13,.18,.36,.4,.55,.41,.84,.04,1.69,.02,2.52,.02,.15-1.42-.41-2.38-1.77-2.91-1.88-.73-3.79-.71-5.65,.13-1.05,.48-1.58,1.35-1.64,2.49-.08,1.43,.69,2.53,2.19,3.02,1.03,.33,2.1,.52,3.13,.85,.28,.09,.48,.44,.71,.68-.29,.17-.56,.46-.87,.51-1.31,.22-1.74-.02-2.32-1.15h-2.92Zm-50.07-4.29c-.14-.19-.26-.29-.29-.4-.64-1.97-2.06-2.48-3.96-2.17-.4,.07-.81,.07-1.31,.1,.93,1.36,1.67,2.61,2.58,3.73,.66,.8,.53,1.36-.03,2.12-1.01,1.36-1.91,2.79-2.98,4.38,1.28,0,2.36,.04,3.42-.03,.24-.01,.53-.33,.69-.58,.53-.82,1.01-1.66,1.56-2.59,.57,.95,1.04,1.78,1.55,2.58,.15,.23,.38,.56,.59,.57,1.22,.05,2.44,.03,3.82,.03-1.18-1.74-2.2-3.31-3.29-4.83-.33-.46-.31-.76,0-1.2,.97-1.35,1.89-2.74,2.94-4.28-1.11,0-2.02,.03-2.93-.01-.6-.03-.98,.15-1.25,.7-.32,.63-.73,1.22-1.14,1.88Zm10.01,4.43c.95,0,1.79,.03,2.64,0,1.65-.06,2.87-1.24,3.06-2.91,.21-1.92-.62-3.69-2.23-3.86-2.22-.24-4.48-.06-6.73-.06v10.1h3.27v-3.27Z"/>
  <path class="cls-2" d="M84.74,43.62c-.68-1.79-.84-3.44-.28-5.09,.97-2.89,2.95-4.7,5.96-5.24,2.59-.47,4.82,.31,6.48,2.4,3.23,4.05,.61,10.45-4.68,11.47-.58,.11-1.17,.16-1.76,.17-3.38,.01-6.76,0-10.14,0-.2,0-.4,0-.59-.01-1.12-.13-1.83-.92-1.76-1.98,.06-1.01,.8-1.7,1.91-1.71,1.57-.02,3.14,0,4.87,0Zm6.01,0c2.07,.02,3.88-1.74,3.9-3.77,.01-1.72-1.23-2.98-2.97-3-2.06-.03-3.86,1.73-3.88,3.77-.02,1.72,1.22,2.98,2.95,3Z"/>
  <path class="cls-2" d="M40.6,43.62c-.95-2.69-.78-5.14,.87-7.33,1.83-2.42,4.29-3.54,7.33-2.99,2.71,.49,4.45,2.16,5.17,4.81,1.16,4.34-2.17,8.92-6.81,9.15-3.8,.18-7.61,.07-11.42,.05-1.19,0-1.94-.85-1.89-1.94,.05-1.03,.83-1.73,1.99-1.74,1.54-.01,3.08,0,4.77,0Zm6,0c2.07,.04,3.88-1.69,3.92-3.74,.03-1.71-1.21-3-2.93-3.04-2.05-.04-3.88,1.7-3.92,3.75-.04,1.71,1.21,3,2.93,3.03Z"/>
  <g>
    <path class="cls-1" d="M188.07,43.37v3.9h-3.57v-11.19c.78,0,1.56,0,2.33,0,1.48,0,2.96,0,4.44,0,2,.01,3.3,.86,3.74,2.42,.47,1.68-.14,3.02-1.98,4.19,.78,1.48,1.56,2.96,2.44,4.62-1.36,0-2.56,.03-3.75-.03-.21,0-.46-.31-.59-.54-.45-.84-.89-1.69-1.25-2.57-.32-.79-.75-1.22-1.81-.81Zm.06-2.68c.84,0,1.58,.11,2.26-.04,.4-.09,.97-.58,.99-.92,.02-.34-.51-.93-.88-1.02-.74-.16-1.54-.05-2.37-.05v2.03Z"/>
    <path class="cls-1" d="M118.15,47.3v-11.32c2.39,.12,4.76,.09,7.08,.39,1.84,.24,3.09,1.52,3.4,3.38,.2,1.21,.25,2.5,.05,3.7-.39,2.35-2.04,3.66-4.7,3.82-1.89,.12-3.8,.02-5.82,.02Zm3.61-2.73c1.21,.03,2.49,.31,3.07-.95,.59-1.28,.65-2.73-.09-3.98-.66-1.12-1.85-.86-2.98-.79v5.72Z"/>
    <path class="cls-1" d="M134.51,38.78v1.52h5.1v2.58h-5.09v1.71h6.07v2.66h-9.7v-11.11h9.61v2.63h-6Z"/>
    <path class="cls-1" d="M176.32,38.78v1.51h5.11v2.58h-5.11v1.71h6.1v2.68h-9.72v-11.12h9.62v2.64h-5.99Z"/>
    <path class="cls-1" d="M162.96,47.32c-1.32-3.72-2.63-7.42-3.99-11.24,1.23,0,2.35-.04,3.45,.03,.23,.01,.54,.41,.63,.69,.61,1.91,1.17,3.83,1.74,5.75,.08,.27,.19,.53,.36,1.01,.72-2.36,1.39-4.48,1.99-6.62,.18-.65,.45-.92,1.15-.87,.88,.07,1.76,.02,2.79,.02-.12,.41-.2,.74-.31,1.06-1.1,3.13-2.22,6.24-3.3,9.38-.2,.59-.45,.85-1.1,.81-1.11-.05-2.23-.02-3.41-.02Z"/>
    <path class="cls-1" d="M195.39,36.08c1.36,0,2.51-.04,3.65,.03,.31,.02,.69,.32,.87,.6,.62,.96,1.16,1.97,1.82,3.11,.64-1.1,1.25-2.06,1.78-3.06,.26-.49,.56-.72,1.15-.69,1.01,.05,2.02,.01,3.22,.01-.88,1.38-1.59,2.68-2.48,3.84-1.47,1.93-2.32,4-1.94,6.46,.04,.25-.02,.52-.04,.85h-3.58c0-.81-.06-1.66,.01-2.49,.11-1.24-.24-2.27-.97-3.29-1.2-1.68-2.26-3.45-3.5-5.38Z"/>
    <path class="cls-1" d="M142.72,36.14h3.53v8.28h5.72v2.82h-9.25v-11.1Z"/>
    <path class="cls-1" d="M157.26,47.29h-3.5v-11.15h3.5v11.15Z"/>
  </g>
  <path class="cls-2" d="M10.5,26.46c0,1.61-1.27,2.89-2.85,2.88-1.59,0-2.87-1.28-2.87-2.88,0-1.6,1.26-2.87,2.87-2.87,1.62,0,2.86,1.24,2.86,2.86Z"/>
  <path class="cls-2" d="M13.49,3.55c-.02,1.62-1.28,2.85-2.89,2.83-1.59-.02-2.86-1.31-2.84-2.9,.02-1.58,1.33-2.86,2.91-2.83,1.61,.02,2.84,1.29,2.82,2.9Z"/>
  <path class="cls-2" d="M161.81,17.36v-1.79c.71,0,1.43-.1,2.1,.04,.32,.07,.78,.58,.77,.88,0,.29-.48,.76-.82,.83-.62,.14-1.29,.04-2.05,.04Z"/>
  <path class="cls-2" d="M151.06,17.89v-2.45c.8,.24,1.51,.36,2.12,.68,.16,.08,.14,1.03-.04,1.13-.59,.31-1.29,.41-2.08,.63Z"/>
</svg>